<?xml version="1.0" encoding="iso-8859-1"?>
<!-- Generator: Adobe Illustrator 19.0.0, SVG Export Plug-In . SVG Version: 6.00 Build 0)  -->
<svg version="1.1" id="Layer_1" xmlns="http://www.w3.org/2000/svg" xmlns:xlink="http://www.w3.org/1999/xlink" x="0px" y="0px"
	 viewBox="0 0 512 512" style="enable-background:new 0 0 512 512;" xml:space="preserve">
<path style="fill:#155A8E;" d="M460.8,455.791H16.696C7.475,455.791,0,448.316,0,439.096c0-9.22,7.475-16.696,16.696-16.696H460.8
	c9.22,0,16.696,7.475,16.696,16.696C477.496,448.316,470.02,455.791,460.8,455.791z"/>
<path style="fill:#00959A;" d="M388.545,300.896c-2.105,0-4.244-0.401-6.312-1.247c-8.535-3.489-12.625-13.237-9.136-21.772
	L455.92,75.306c3.49-8.535,13.24-12.624,21.772-9.136c8.535,3.489,12.625,13.237,9.136,21.772l-82.824,202.571
	C401.36,296.981,395.124,300.896,388.545,300.896z"/>
<path style="fill:#6CC72A;" d="M367.885,308.793c-2.54,0-5.117-0.581-7.536-1.809l-135.19-68.535
	c-8.224-4.169-11.512-14.216-7.343-22.44c4.169-8.224,14.217-11.513,22.44-7.343l135.19,68.535
	c8.224,4.169,11.512,14.216,7.343,22.44C379.848,305.446,373.977,308.793,367.885,308.793z"/>
<path style="fill:#FF9711;" d="M143.01,358.402c-3.08,0-6.194-0.852-8.98-2.633c-7.768-4.969-10.037-15.293-5.069-23.061
	l72.035-112.618c4.969-7.768,15.293-10.036,23.061-5.069c7.768,4.969,10.037,15.293,5.069,23.061L157.092,350.7
	C153.904,355.682,148.516,358.402,143.01,358.402z"/>
<path style="fill:#1E80CD;" d="M54.539,494.748c-9.22,0-16.696-7.475-16.696-16.696V33.948c0-9.22,7.475-16.696,16.696-16.696
	s16.696,7.475,16.696,16.696v444.104C71.235,487.273,63.76,494.748,54.539,494.748z"/>
<g>
	<circle style="fill:#FFD322;" cx="143.026" cy="341.704" r="40.626"/>
	<circle style="fill:#FFD322;" cx="221.83" cy="218.157" r="40.626"/>
	<circle style="fill:#FFD322;" cx="387.606" cy="302.536" r="40.626"/>
	<circle style="fill:#FFD322;" cx="471.374" cy="81.631" r="40.626"/>
</g>
<g>
	<path style="fill:#E2BC1E;" d="M143.026,301.078v81.252c22.437,0,40.626-18.189,40.626-40.626
		C183.652,319.268,165.463,301.078,143.026,301.078z"/>
	<path style="fill:#E2BC1E;" d="M221.828,177.53v81.252c22.437,0,40.626-18.189,40.626-40.626S244.265,177.53,221.828,177.53z"/>
	<path style="fill:#E2BC1E;" d="M387.61,261.906v81.252c22.437,0,40.626-18.189,40.626-40.626
		C428.236,280.095,410.046,261.906,387.61,261.906z"/>
	<path style="fill:#E2BC1E;" d="M471.374,41v81.252c22.437,0,40.626-18.189,40.626-40.626C512,59.188,493.811,41,471.374,41z"/>
</g>
<g>
</g>
<g>
</g>
<g>
</g>
<g>
</g>
<g>
</g>
<g>
</g>
<g>
</g>
<g>
</g>
<g>
</g>
<g>
</g>
<g>
</g>
<g>
</g>
<g>
</g>
<g>
</g>
<g>
</g>
</svg>
