<?xml version="1.0" encoding="utf-8"?><svg version="1.1" id="Layer_1" xmlns="http://www.w3.org/2000/svg" xmlns:xlink="http://www.w3.org/1999/xlink" x="0px" y="0px" viewBox="0 0 102.55 122.88" style="enable-background:new 0 0 102.55 122.88" xml:space="preserve"><style type="text/css">.st0{fill-rule:evenodd;clip-rule:evenodd;}</style><g><path class="st0" d="M102.55,122.88H0V0h77.66l24.89,26.44L102.55,122.88L102.55,122.88z M25.51,53.72h15.67V43.33H25.51V32.56 l15.67,0V21.85H25.51V11.08h15.67V7.83H8.43v106.23h85.77V32.36H71.52V7.83H56.86v3.29H41.18v10.71l15.68,0V32.6H41.18v10.49h15.68 v24.99c0,7.9-6.46,14.36-14.36,14.36l-2.63,0c-7.9,0-14.36-6.46-14.36-14.36V53.72L25.51,53.72z M36.28,63.07h10.28v4.06 c0,2.23-2.12,4.05-4.71,4.05h-0.86c-2.59,0-4.71-1.83-4.71-4.05V63.07L36.28,63.07L36.28,63.07z"/></g></svg>