<?xml version="1.0" encoding="UTF-8" standalone="no"?>
<!-- Created with Inkscape (http://www.inkscape.org/) -->

<svg
   xmlns:dc="http://purl.org/dc/elements/1.1/"
   xmlns:cc="http://creativecommons.org/ns#"
   xmlns:rdf="http://www.w3.org/1999/02/22-rdf-syntax-ns#"
   xmlns:svg="http://www.w3.org/2000/svg"
   xmlns="http://www.w3.org/2000/svg"
   xmlns:sodipodi="http://sodipodi.sourceforge.net/DTD/sodipodi-0.dtd"
   xmlns:inkscape="http://www.inkscape.org/namespaces/inkscape"
   width="56.768284mm"
   height="56.771042mm"
   viewBox="0 0 56.768284 56.771042"
   version="1.1"
   id="svg29466"
   inkscape:version="0.92.1 r15371"
   sodipodi:docname="SDG_11.svg"
   inkscape:export-filename="C:\Users\azvol\OneDrive - Conservation International\Trends.Earth\SDG_11.png"
   inkscape:export-xdpi="447.42999"
   inkscape:export-ydpi="447.42999">
  <defs
     id="defs29460" />
  <sodipodi:namedview
     id="base"
     pagecolor="#ffffff"
     bordercolor="#666666"
     borderopacity="1.0"
     inkscape:pageopacity="0.0"
     inkscape:pageshadow="2"
     inkscape:zoom="5.2990266"
     inkscape:cx="107.27865"
     inkscape:cy="107.28386"
     inkscape:document-units="mm"
     inkscape:current-layer="layer1"
     showgrid="false"
     inkscape:window-width="2560"
     inkscape:window-height="1360"
     inkscape:window-x="-11"
     inkscape:window-y="-11"
     inkscape:window-maximized="1"
     fit-margin-top="0"
     fit-margin-left="0"
     fit-margin-right="0"
     fit-margin-bottom="0" />
  <metadata
     id="metadata29463">
    <rdf:RDF>
      <cc:Work
         rdf:about="">
        <dc:format>image/svg+xml</dc:format>
        <dc:type
           rdf:resource="http://purl.org/dc/dcmitype/StillImage" />
        <dc:title />
      </cc:Work>
    </rdf:RDF>
  </metadata>
  <g
     inkscape:label="Layer 1"
     inkscape:groupmode="layer"
     id="layer1"
     transform="translate(-94.373656,70.052187)">
    <path
       inkscape:connector-curvature="0"
       style="fill:#fd9c23;fill-opacity:1;fill-rule:nonzero;stroke:none;stroke-width:0.35277778"
       d="M 151.14194,-13.281147 H 94.373656 v -56.77104 h 56.768284 z m 0,0"
       id="path14085"
       inkscape:export-xdpi="447.42999"
       inkscape:export-ydpi="447.42999" />
    <path
       inkscape:connector-curvature="0"
       style="fill:#ffffff;fill-opacity:1;fill-rule:nonzero;stroke:none;stroke-width:0.35277778"
       d="m 98.441625,-63.217118 v 2.0078 h 0.01655 l 1.350479,-1.400087 h 0.01655 v 8.761567 h 1.925126 v -11.447363 h -1.53652 z m 0,0"
       id="path14129"
       inkscape:export-xdpi="447.42999"
       inkscape:export-ydpi="447.42999" />
    <path
       inkscape:connector-curvature="0"
       style="fill:#ffffff;fill-opacity:1;fill-rule:nonzero;stroke:none;stroke-width:0.35277778"
       d="m 102.83068,-63.217118 v 2.0078 h 0.0165 l 1.35048,-1.400087 h 0.0165 v 8.761567 h 1.92512 v -11.447363 h -1.53514 z m 0,0"
       id="path14131"
       inkscape:export-xdpi="447.42999"
       inkscape:export-ydpi="447.42999" />
    <path
       inkscape:connector-curvature="0"
       style="fill:#ffffff;fill-opacity:1;fill-rule:nonzero;stroke:none;stroke-width:0.35277778"
       d="m 104.13981,-26.831399 h 8.5397 c 0.11438,0 0.20946,-0.09508 0.20946,-0.210838 0,-0.05375 -0.0221,-0.101979 -0.0551,-0.139184 l -0.0124,-0.01238 -4.24849,-5.496994 -0.0413,-0.04548 c -0.0386,-0.04134 -0.0923,-0.06752 -0.15434,-0.06752 -0.0524,0 -0.0992,0.02204 -0.1378,0.05374 l -0.0248,0.02893 -0.04,0.04548 -4.14514,5.439114 -0.0634,0.07717 c -0.0234,0.03306 -0.0358,0.07442 -0.0358,0.117137 0,0.115755 0.0937,0.210838 0.20946,0.210838"
       id="path14221"
       inkscape:export-xdpi="447.42999"
       inkscape:export-ydpi="447.42999" />
    <path
       inkscape:connector-curvature="0"
       style="fill:#ffffff;fill-opacity:1;fill-rule:nonzero;stroke:none;stroke-width:0.35277778"
       d="m 112.65333,-26.056942 h -8.55624 c -0.11575,0 -0.20946,0.09371 -0.20946,0.209462 v 6.695888 c 0,0.115755 0.0937,0.210841 0.20946,0.210841 h 2.7547 v -4.212664 c 0,-0.117134 0.0923,-0.209463 0.20809,-0.209463 h 2.55763 c 0.11576,0 0.20809,0.09233 0.20809,0.209463 v 4.212664 h 2.82773 c 0.11576,0 0.20947,-0.09508 0.20947,-0.210841 v -6.695888 c 0,-0.115755 -0.0937,-0.209462 -0.20947,-0.209462"
       id="path14223"
       inkscape:export-xdpi="447.42999"
       inkscape:export-ydpi="447.42999" />
    <path
       inkscape:connector-curvature="0"
       style="fill:#ffffff;fill-opacity:1;fill-rule:nonzero;stroke:none;stroke-width:0.35277778"
       d="m 141.45846,-25.068888 c 0,0.11162 -0.0923,0.202571 -0.20808,0.202571 h -2.5287 c -0.11576,0 -0.20808,-0.09095 -0.20808,-0.202571 v -1.53789 c 0,-0.111623 0.0923,-0.201195 0.20808,-0.201195 h 2.5287 c 0.11575,0 0.20808,0.08957 0.20808,0.201195 z m 0,2.841514 c 0,0.113001 -0.0923,0.202571 -0.20808,0.202571 h -2.5287 c -0.11576,0 -0.20808,-0.08957 -0.20808,-0.202571 v -1.536514 c 0,-0.112999 0.0923,-0.202568 0.20808,-0.202568 h 2.5287 c 0.11575,0 0.20808,0.08957 0.20808,0.202568 z m -3.86677,-2.841514 c 0,0.11162 -0.0923,0.202571 -0.20671,0.202571 h -2.53007 c -0.11576,0 -0.20809,-0.09095 -0.20809,-0.202571 v -1.53789 c 0,-0.111623 0.0923,-0.201195 0.20809,-0.201195 h 2.53007 c 0.11438,0 0.20671,0.08957 0.20671,0.201195 z m 0,2.841514 c 0,0.113001 -0.0923,0.202571 -0.20671,0.202571 h -2.53007 c -0.11576,0 -0.20809,-0.08957 -0.20809,-0.202571 v -1.536514 c 0,-0.112999 0.0923,-0.202568 0.20809,-0.202568 h 2.53007 c 0.11438,0 0.20671,0.08957 0.20671,0.202568 z m 4.63296,-5.582433 h -8.46804 c -0.11438,0 -0.20671,0.08957 -0.20671,0.201195 v 8.552103 c 0,0.110244 0.0923,0.201197 0.20671,0.201197 h 8.46804 c 0.11576,0 0.20809,-0.09095 0.20809,-0.201197 v -8.552103 c 0,-0.111623 -0.0923,-0.201195 -0.20809,-0.201195"
       id="path14225"
       inkscape:export-xdpi="447.42999"
       inkscape:export-ydpi="447.42999" />
    <path
       inkscape:connector-curvature="0"
       style="fill:#ffffff;fill-opacity:1;fill-rule:nonzero;stroke:none;stroke-width:0.35277778"
       d="m 121.33084,-41.58192 c 0,0.05926 -0.0496,0.108868 -0.11024,0.108868 h -1.89619 c -0.0606,0 -0.10886,-0.04961 -0.10886,-0.108868 v -2.115288 c 0,-0.06064 0.0482,-0.108867 0.10886,-0.108867 h 1.89619 c 0.0606,0 0.11024,0.04823 0.11024,0.108867 z m 0,4.856208 c 0,0.05926 -0.0496,0.108865 -0.11024,0.108865 h -1.89619 c -0.0606,0 -0.10886,-0.04961 -0.10886,-0.108865 v -2.115291 c 0,-0.06063 0.0482,-0.107484 0.10886,-0.107484 h 1.89619 c 0.0606,0 0.11024,0.04685 0.11024,0.107484 z m 0,4.856205 c 0,0.06063 -0.0496,0.108868 -0.11024,0.108868 h -1.89619 c -0.0606,0 -0.10886,-0.04823 -0.10886,-0.108868 v -2.115289 c 0,-0.05926 0.0482,-0.108865 0.10886,-0.108865 h 1.89619 c 0.0606,0 0.11024,0.04961 0.11024,0.108865 z m 0,4.85621 c 0,0.06063 -0.0496,0.107481 -0.11024,0.107481 h -1.89619 c -0.0606,0 -0.10886,-0.04685 -0.10886,-0.107481 v -2.113913 c 0,-0.06201 0.0482,-0.108862 0.10886,-0.108862 h 1.89619 c 0.0606,0 0.11024,0.04685 0.11024,0.108862 z m 0,4.856205 c 0,0.06064 -0.0496,0.108865 -0.11024,0.108865 h -1.89619 c -0.0606,0 -0.10886,-0.04823 -0.10886,-0.108865 v -2.113913 c 0,-0.06063 0.0482,-0.108865 0.10886,-0.108865 h 1.89619 c 0.0606,0 0.11024,0.04823 0.11024,0.108865 z m -3.72208,-19.424828 c 0,0.05926 -0.0482,0.108868 -0.10887,0.108868 h -1.89756 c -0.0593,0 -0.10886,-0.04961 -0.10886,-0.108868 v -2.115288 c 0,-0.06064 0.0496,-0.108867 0.10886,-0.108867 h 1.89756 c 0.0606,0 0.10887,0.04823 0.10887,0.108867 z m 0,4.856208 c 0,0.05926 -0.0482,0.108865 -0.10887,0.108865 h -1.89756 c -0.0593,0 -0.10886,-0.04961 -0.10886,-0.108865 v -2.115291 c 0,-0.06063 0.0496,-0.107484 0.10886,-0.107484 h 1.89756 c 0.0606,0 0.10887,0.04685 0.10887,0.107484 z m 0,4.856205 c 0,0.06063 -0.0482,0.108868 -0.10887,0.108868 h -1.89756 c -0.0593,0 -0.10886,-0.04823 -0.10886,-0.108868 v -2.115289 c 0,-0.05926 0.0496,-0.108865 0.10886,-0.108865 h 1.89756 c 0.0606,0 0.10887,0.04961 0.10887,0.108865 z m 0,4.85621 c 0,0.06063 -0.0482,0.107481 -0.10887,0.107481 h -1.89756 c -0.0593,0 -0.10886,-0.04685 -0.10886,-0.107481 v -2.113913 c 0,-0.06201 0.0496,-0.108862 0.10886,-0.108862 h 1.89756 c 0.0606,0 0.10887,0.04685 0.10887,0.108862 z m 0,4.856205 c 0,0.06064 -0.0482,0.108865 -0.10887,0.108865 h -1.89756 c -0.0593,0 -0.10886,-0.04823 -0.10886,-0.108865 v -2.113913 c 0,-0.06063 0.0496,-0.108865 0.10886,-0.108865 h 1.89756 c 0.0606,0 0.10887,0.04823 0.10887,0.108865 z m 4.93062,-25.501976 h -8.28752 c -0.11162,0 -0.20257,0.08957 -0.20257,0.202572 v 28.324197 c 0,0.111622 0.091,0.20257 0.20257,0.20257 h 8.28752 c 0.11024,0 0.20395,-0.09095 0.20395,-0.20257 v -28.324197 c 0,-0.112998 -0.0937,-0.202572 -0.20395,-0.202572"
       id="path14227"
       inkscape:export-xdpi="447.42999"
       inkscape:export-ydpi="447.42999" />
    <path
       inkscape:connector-curvature="0"
       style="fill:#ffffff;fill-opacity:1;fill-rule:nonzero;stroke:none;stroke-width:0.35277778"
       d="m 142.42309,-28.669703 c 0,0.09509 -0.0758,0.170879 -0.17088,0.170879 h -8.52316 c -0.0937,0 -0.17088,-0.07579 -0.17088,-0.170879 v -1.704633 c 0,-0.0937 0.0772,-0.170874 0.17088,-0.170874 h 8.52316 c 0.0951,0 0.17088,0.07717 0.17088,0.170874 z m 0,0"
       id="path14229"
       inkscape:export-xdpi="447.42999"
       inkscape:export-ydpi="447.42999" />
    <path
       inkscape:connector-curvature="0"
       style="fill:#ffffff;fill-opacity:1;fill-rule:nonzero;stroke:none;stroke-width:0.35277778"
       d="m 131.60687,-33.656821 c 0,0.112999 -0.0909,0.202571 -0.20257,0.202571 h -2.46945 c -0.11299,0 -0.20395,-0.08957 -0.20395,-0.202571 v -1.546161 c 0,-0.112998 0.091,-0.20257 0.20395,-0.20257 h 2.46945 c 0.11162,0 0.20257,0.08957 0.20257,0.20257 z m 0,2.858051 c 0,0.111619 -0.0909,0.201191 -0.20257,0.201191 h -2.46945 c -0.11299,0 -0.20395,-0.08957 -0.20395,-0.201191 v -1.546157 c 0,-0.113003 0.091,-0.202573 0.20395,-0.202573 h 2.46945 c 0.11162,0 0.20257,0.08957 0.20257,0.202573 z m 0,2.856671 c 0,0.111623 -0.0909,0.202573 -0.20257,0.202573 h -2.46945 c -0.11299,0 -0.20395,-0.09095 -0.20395,-0.202573 v -1.546158 c 0,-0.112999 0.091,-0.202571 0.20395,-0.202571 h 2.46945 c 0.11162,0 0.20257,0.08957 0.20257,0.202571 z m 0,2.856675 c 0,0.112998 -0.0909,0.20257 -0.20257,0.20257 h -2.46945 c -0.11299,0 -0.20395,-0.08957 -0.20395,-0.20257 v -1.546159 c 0,-0.112998 0.091,-0.202573 0.20395,-0.202573 h 2.46945 c 0.11162,0 0.20257,0.08957 0.20257,0.202573 z m 0,2.856674 c 0,0.112999 -0.0909,0.202571 -0.20257,0.202571 h -2.46945 c -0.11299,0 -0.20395,-0.08957 -0.20395,-0.202571 v -1.546161 c 0,-0.11162 0.091,-0.201194 0.20395,-0.201194 h 2.46945 c 0.11162,0 0.20257,0.08957 0.20257,0.201194 z m -3.76894,-11.973776 v 3.406513 c 0,0.111619 -0.091,0.20257 -0.20256,0.20257 h -2.46945 c -0.113,0 -0.20395,-0.09095 -0.20395,-0.20257 v -0.42857 c 0.001,-0.02755 0.007,-0.05237 0.0152,-0.07579 0.005,-0.0083 0.005,-0.01238 0.0124,-0.02344 0.005,-0.0097 0.0124,-0.01929 0.0193,-0.02755 0.005,-0.0096 0.0152,-0.02204 0.022,-0.03306 0.31557,-0.451998 1.74046,-2.207617 2.33853,-2.940735 l 0.0606,-0.07166 c 0.0427,-0.05237 0.10887,-0.08682 0.1819,-0.08682 0.113,0 0.20395,0.08268 0.226,0.190169 z m -0.007,6.260427 c 0,0.111623 -0.0896,0.202573 -0.20257,0.202573 h -2.46944 c -0.113,0 -0.20257,-0.09095 -0.20257,-0.202573 v -1.546158 c 0,-0.112999 0.0896,-0.202571 0.20257,-0.202571 h 2.46944 c 0.113,0 0.20257,0.08957 0.20257,0.202571 z m 0,2.856675 c 0,0.112998 -0.0896,0.20257 -0.20257,0.20257 h -2.46944 c -0.113,0 -0.20257,-0.08957 -0.20257,-0.20257 v -1.546159 c 0,-0.112998 0.0896,-0.202573 0.20257,-0.202573 h 2.46944 c 0.113,0 0.20257,0.08957 0.20257,0.202573 z m 0,2.856674 c 0,0.112999 -0.0896,0.202571 -0.20257,0.202571 h -2.46944 c -0.113,0 -0.20257,-0.08957 -0.20257,-0.202571 v -1.546161 c 0,-0.11162 0.0896,-0.201194 0.20257,-0.201194 h 2.46944 c 0.113,0 0.20257,0.08957 0.20257,0.201194 z m 1.28847,-14.470779 0.0593,-0.07304 c 0.55673,-0.7152 1.49655,-1.871371 1.95406,-2.432235 l 0.0593,-0.07166 c 0.0441,-0.05237 0.11024,-0.08682 0.18328,-0.08682 0.113,0 0.20395,0.08268 0.226,0.190172 v 2.614136 c 0,0.125402 -0.1006,0.227375 -0.22462,0.232889 -0.004,0 -0.008,0.0013 -0.011,0.0013 -0.003,0 -0.007,-0.0013 -0.011,-0.0013 h -2.03399 c -0.004,0 -0.008,0.0013 -0.011,0.0013 -0.004,0 -0.007,-0.0013 -0.011,-0.0013 -0.12402,-0.0055 -0.22462,-0.107487 -0.22462,-0.232889 0,-0.05236 0.0165,-0.100595 0.0455,-0.140557 m 3.42993,-5.611371 c -0.0275,-0.09095 -0.10886,-0.158475 -0.20808,-0.158475 -0.0455,0 -0.0841,0.01654 -0.11851,0.03996 -0.006,0.0028 -0.01,0.0055 -0.0152,0.0096 l -0.0703,0.08819 -8.14558,10.332529 -0.0372,0.05099 c -0.0427,0.04134 -0.0689,0.09784 -0.0703,0.161232 v 12.69724 c 0,0.111622 0.091,0.201197 0.20257,0.201197 h 8.27925 c 0.113,0 0.20257,-0.08957 0.20257,-0.201197 v -23.135836 c 0,-0.0303 -0.008,-0.05926 -0.0193,-0.08543"
       id="path14231"
       inkscape:export-xdpi="447.42999"
       inkscape:export-ydpi="447.42999" />
    <path
       inkscape:connector-curvature="0"
       style="fill:#ffffff;fill-opacity:1;fill-rule:nonzero;stroke:none;stroke-width:0.35277778"
       d="m 98.441625,-63.217118 v 2.0078 h 0.01655 l 1.350479,-1.400087 h 0.01655 v 8.761567 h 1.925126 v -11.447363 h -1.53652 z m 0,0"
       id="path15843"
       inkscape:export-xdpi="447.42999"
       inkscape:export-ydpi="447.42999" />
    <path
       inkscape:connector-curvature="0"
       style="fill:#ffffff;fill-opacity:1;fill-rule:nonzero;stroke:none;stroke-width:0.35277778"
       d="m 102.83068,-63.217118 v 2.0078 h 0.0165 l 1.35048,-1.400087 h 0.0165 v 8.761567 h 1.92512 v -11.447363 h -1.53514 z m 0,0"
       id="path15845"
       inkscape:export-xdpi="447.42999"
       inkscape:export-ydpi="447.42999" />
    <path
       inkscape:connector-curvature="0"
       style="fill:#ffffff;fill-opacity:1;fill-rule:nonzero;stroke:none;stroke-width:0.35277778"
       d="m 104.13981,-26.831399 h 8.5397 c 0.11438,0 0.20946,-0.09508 0.20946,-0.210838 0,-0.05375 -0.0221,-0.101979 -0.0551,-0.139184 l -0.0124,-0.01238 -4.24849,-5.496994 -0.0413,-0.04548 c -0.0386,-0.04134 -0.0923,-0.06752 -0.15434,-0.06752 -0.0524,0 -0.0992,0.02204 -0.1378,0.05374 l -0.0248,0.02893 -0.04,0.04548 -4.14514,5.439114 -0.0634,0.07717 c -0.0234,0.03306 -0.0358,0.07442 -0.0358,0.117137 0,0.115755 0.0937,0.210838 0.20946,0.210838"
       id="path15935"
       inkscape:export-xdpi="447.42999"
       inkscape:export-ydpi="447.42999" />
    <path
       inkscape:connector-curvature="0"
       style="fill:#ffffff;fill-opacity:1;fill-rule:nonzero;stroke:none;stroke-width:0.35277778"
       d="m 112.65333,-26.056942 h -8.55624 c -0.11575,0 -0.20946,0.09371 -0.20946,0.209462 v 6.695888 c 0,0.115755 0.0937,0.210841 0.20946,0.210841 h 2.7547 v -4.212664 c 0,-0.117134 0.0923,-0.209463 0.20809,-0.209463 h 2.55763 c 0.11576,0 0.20809,0.09233 0.20809,0.209463 v 4.212664 h 2.82773 c 0.11576,0 0.20947,-0.09508 0.20947,-0.210841 v -6.695888 c 0,-0.115755 -0.0937,-0.209462 -0.20947,-0.209462"
       id="path15937"
       inkscape:export-xdpi="447.42999"
       inkscape:export-ydpi="447.42999" />
    <path
       inkscape:connector-curvature="0"
       style="fill:#ffffff;fill-opacity:1;fill-rule:nonzero;stroke:none;stroke-width:0.35277778"
       d="m 141.45846,-25.068888 c 0,0.11162 -0.0923,0.202571 -0.20808,0.202571 h -2.5287 c -0.11576,0 -0.20808,-0.09095 -0.20808,-0.202571 v -1.53789 c 0,-0.111623 0.0923,-0.201195 0.20808,-0.201195 h 2.5287 c 0.11575,0 0.20808,0.08957 0.20808,0.201195 z m 0,2.841514 c 0,0.113001 -0.0923,0.202571 -0.20808,0.202571 h -2.5287 c -0.11576,0 -0.20808,-0.08957 -0.20808,-0.202571 v -1.536514 c 0,-0.112999 0.0923,-0.202568 0.20808,-0.202568 h 2.5287 c 0.11575,0 0.20808,0.08957 0.20808,0.202568 z m -3.86677,-2.841514 c 0,0.11162 -0.0923,0.202571 -0.20671,0.202571 h -2.53007 c -0.11576,0 -0.20809,-0.09095 -0.20809,-0.202571 v -1.53789 c 0,-0.111623 0.0923,-0.201195 0.20809,-0.201195 h 2.53007 c 0.11438,0 0.20671,0.08957 0.20671,0.201195 z m 0,2.841514 c 0,0.113001 -0.0923,0.202571 -0.20671,0.202571 h -2.53007 c -0.11576,0 -0.20809,-0.08957 -0.20809,-0.202571 v -1.536514 c 0,-0.112999 0.0923,-0.202568 0.20809,-0.202568 h 2.53007 c 0.11438,0 0.20671,0.08957 0.20671,0.202568 z m 4.63296,-5.582433 h -8.46804 c -0.11438,0 -0.20671,0.08957 -0.20671,0.201195 v 8.552103 c 0,0.110244 0.0923,0.201197 0.20671,0.201197 h 8.46804 c 0.11576,0 0.20809,-0.09095 0.20809,-0.201197 v -8.552103 c 0,-0.111623 -0.0923,-0.201195 -0.20809,-0.201195"
       id="path15939"
       inkscape:export-xdpi="447.42999"
       inkscape:export-ydpi="447.42999" />
    <path
       inkscape:connector-curvature="0"
       style="fill:#ffffff;fill-opacity:1;fill-rule:nonzero;stroke:none;stroke-width:0.35277778"
       d="m 121.33084,-41.58192 c 0,0.05926 -0.0496,0.108868 -0.11024,0.108868 h -1.89619 c -0.0606,0 -0.10886,-0.04961 -0.10886,-0.108868 v -2.115288 c 0,-0.06064 0.0482,-0.108867 0.10886,-0.108867 h 1.89619 c 0.0606,0 0.11024,0.04823 0.11024,0.108867 z m 0,4.856208 c 0,0.05926 -0.0496,0.108865 -0.11024,0.108865 h -1.89619 c -0.0606,0 -0.10886,-0.04961 -0.10886,-0.108865 v -2.115291 c 0,-0.06063 0.0482,-0.107484 0.10886,-0.107484 h 1.89619 c 0.0606,0 0.11024,0.04685 0.11024,0.107484 z m 0,4.856205 c 0,0.06063 -0.0496,0.108868 -0.11024,0.108868 h -1.89619 c -0.0606,0 -0.10886,-0.04823 -0.10886,-0.108868 v -2.115289 c 0,-0.05926 0.0482,-0.108865 0.10886,-0.108865 h 1.89619 c 0.0606,0 0.11024,0.04961 0.11024,0.108865 z m 0,4.85621 c 0,0.06063 -0.0496,0.107481 -0.11024,0.107481 h -1.89619 c -0.0606,0 -0.10886,-0.04685 -0.10886,-0.107481 v -2.113913 c 0,-0.06201 0.0482,-0.108862 0.10886,-0.108862 h 1.89619 c 0.0606,0 0.11024,0.04685 0.11024,0.108862 z m 0,4.856205 c 0,0.06064 -0.0496,0.108865 -0.11024,0.108865 h -1.89619 c -0.0606,0 -0.10886,-0.04823 -0.10886,-0.108865 v -2.113913 c 0,-0.06063 0.0482,-0.108865 0.10886,-0.108865 h 1.89619 c 0.0606,0 0.11024,0.04823 0.11024,0.108865 z m -3.72208,-19.424828 c 0,0.05926 -0.0482,0.108868 -0.10887,0.108868 h -1.89756 c -0.0593,0 -0.10886,-0.04961 -0.10886,-0.108868 v -2.115288 c 0,-0.06064 0.0496,-0.108867 0.10886,-0.108867 h 1.89756 c 0.0606,0 0.10887,0.04823 0.10887,0.108867 z m 0,4.856208 c 0,0.05926 -0.0482,0.108865 -0.10887,0.108865 h -1.89756 c -0.0593,0 -0.10886,-0.04961 -0.10886,-0.108865 v -2.115291 c 0,-0.06063 0.0496,-0.107484 0.10886,-0.107484 h 1.89756 c 0.0606,0 0.10887,0.04685 0.10887,0.107484 z m 0,4.856205 c 0,0.06063 -0.0482,0.108868 -0.10887,0.108868 h -1.89756 c -0.0593,0 -0.10886,-0.04823 -0.10886,-0.108868 v -2.115289 c 0,-0.05926 0.0496,-0.108865 0.10886,-0.108865 h 1.89756 c 0.0606,0 0.10887,0.04961 0.10887,0.108865 z m 0,4.85621 c 0,0.06063 -0.0482,0.107481 -0.10887,0.107481 h -1.89756 c -0.0593,0 -0.10886,-0.04685 -0.10886,-0.107481 v -2.113913 c 0,-0.06201 0.0496,-0.108862 0.10886,-0.108862 h 1.89756 c 0.0606,0 0.10887,0.04685 0.10887,0.108862 z m 0,4.856205 c 0,0.06064 -0.0482,0.108865 -0.10887,0.108865 h -1.89756 c -0.0593,0 -0.10886,-0.04823 -0.10886,-0.108865 v -2.113913 c 0,-0.06063 0.0496,-0.108865 0.10886,-0.108865 h 1.89756 c 0.0606,0 0.10887,0.04823 0.10887,0.108865 z m 4.93062,-25.501976 h -8.28752 c -0.11162,0 -0.20257,0.08957 -0.20257,0.202572 v 28.324197 c 0,0.111622 0.091,0.20257 0.20257,0.20257 h 8.28752 c 0.11024,0 0.20395,-0.09095 0.20395,-0.20257 v -28.324197 c 0,-0.112998 -0.0937,-0.202572 -0.20395,-0.202572"
       id="path15941"
       inkscape:export-xdpi="447.42999"
       inkscape:export-ydpi="447.42999" />
    <path
       inkscape:connector-curvature="0"
       style="fill:#ffffff;fill-opacity:1;fill-rule:nonzero;stroke:none;stroke-width:0.35277778"
       d="m 142.42309,-28.669703 c 0,0.09509 -0.0758,0.170879 -0.17088,0.170879 h -8.52316 c -0.0937,0 -0.17088,-0.07579 -0.17088,-0.170879 v -1.704633 c 0,-0.0937 0.0772,-0.170874 0.17088,-0.170874 h 8.52316 c 0.0951,0 0.17088,0.07717 0.17088,0.170874 z m 0,0"
       id="path15943"
       inkscape:export-xdpi="447.42999"
       inkscape:export-ydpi="447.42999" />
    <path
       inkscape:connector-curvature="0"
       style="fill:#ffffff;fill-opacity:1;fill-rule:nonzero;stroke:none;stroke-width:0.35277778"
       d="m 131.60687,-33.656821 c 0,0.112999 -0.0909,0.202571 -0.20257,0.202571 h -2.46945 c -0.11299,0 -0.20395,-0.08957 -0.20395,-0.202571 v -1.546161 c 0,-0.112998 0.091,-0.20257 0.20395,-0.20257 h 2.46945 c 0.11162,0 0.20257,0.08957 0.20257,0.20257 z m 0,2.858051 c 0,0.111619 -0.0909,0.201191 -0.20257,0.201191 h -2.46945 c -0.11299,0 -0.20395,-0.08957 -0.20395,-0.201191 v -1.546157 c 0,-0.113003 0.091,-0.202573 0.20395,-0.202573 h 2.46945 c 0.11162,0 0.20257,0.08957 0.20257,0.202573 z m 0,2.856671 c 0,0.111623 -0.0909,0.202573 -0.20257,0.202573 h -2.46945 c -0.11299,0 -0.20395,-0.09095 -0.20395,-0.202573 v -1.546158 c 0,-0.112999 0.091,-0.202571 0.20395,-0.202571 h 2.46945 c 0.11162,0 0.20257,0.08957 0.20257,0.202571 z m 0,2.856675 c 0,0.112998 -0.0909,0.20257 -0.20257,0.20257 h -2.46945 c -0.11299,0 -0.20395,-0.08957 -0.20395,-0.20257 v -1.546159 c 0,-0.112998 0.091,-0.202573 0.20395,-0.202573 h 2.46945 c 0.11162,0 0.20257,0.08957 0.20257,0.202573 z m 0,2.856674 c 0,0.112999 -0.0909,0.202571 -0.20257,0.202571 h -2.46945 c -0.11299,0 -0.20395,-0.08957 -0.20395,-0.202571 v -1.546161 c 0,-0.11162 0.091,-0.201194 0.20395,-0.201194 h 2.46945 c 0.11162,0 0.20257,0.08957 0.20257,0.201194 z m -3.76894,-11.973776 v 3.406513 c 0,0.111619 -0.091,0.20257 -0.20256,0.20257 h -2.46945 c -0.113,0 -0.20395,-0.09095 -0.20395,-0.20257 v -0.42857 c 0.001,-0.02755 0.007,-0.05237 0.0152,-0.07579 0.005,-0.0083 0.005,-0.01238 0.0124,-0.02344 0.005,-0.0097 0.0124,-0.01929 0.0193,-0.02755 0.005,-0.0096 0.0152,-0.02204 0.022,-0.03306 0.31557,-0.451998 1.74046,-2.207617 2.33853,-2.940735 l 0.0606,-0.07166 c 0.0427,-0.05237 0.10887,-0.08682 0.1819,-0.08682 0.113,0 0.20395,0.08268 0.226,0.190169 z m -0.007,6.260427 c 0,0.111623 -0.0896,0.202573 -0.20257,0.202573 h -2.46944 c -0.113,0 -0.20257,-0.09095 -0.20257,-0.202573 v -1.546158 c 0,-0.112999 0.0896,-0.202571 0.20257,-0.202571 h 2.46944 c 0.113,0 0.20257,0.08957 0.20257,0.202571 z m 0,2.856675 c 0,0.112998 -0.0896,0.20257 -0.20257,0.20257 h -2.46944 c -0.113,0 -0.20257,-0.08957 -0.20257,-0.20257 v -1.546159 c 0,-0.112998 0.0896,-0.202573 0.20257,-0.202573 h 2.46944 c 0.113,0 0.20257,0.08957 0.20257,0.202573 z m 0,2.856674 c 0,0.112999 -0.0896,0.202571 -0.20257,0.202571 h -2.46944 c -0.113,0 -0.20257,-0.08957 -0.20257,-0.202571 v -1.546161 c 0,-0.11162 0.0896,-0.201194 0.20257,-0.201194 h 2.46944 c 0.113,0 0.20257,0.08957 0.20257,0.201194 z m 1.28847,-14.470779 0.0593,-0.07304 c 0.55673,-0.7152 1.49655,-1.871371 1.95406,-2.432235 l 0.0593,-0.07166 c 0.0441,-0.05237 0.11024,-0.08682 0.18328,-0.08682 0.113,0 0.20395,0.08268 0.226,0.190172 v 2.614136 c 0,0.125402 -0.1006,0.227375 -0.22462,0.232889 -0.004,0 -0.008,0.0013 -0.011,0.0013 -0.003,0 -0.007,-0.0013 -0.011,-0.0013 h -2.03399 c -0.004,0 -0.008,0.0013 -0.011,0.0013 -0.004,0 -0.007,-0.0013 -0.011,-0.0013 -0.12402,-0.0055 -0.22462,-0.107487 -0.22462,-0.232889 0,-0.05236 0.0165,-0.100595 0.0455,-0.140557 m 3.42993,-5.611371 c -0.0275,-0.09095 -0.10886,-0.158475 -0.20808,-0.158475 -0.0455,0 -0.0841,0.01654 -0.11851,0.03996 -0.006,0.0028 -0.01,0.0055 -0.0152,0.0096 l -0.0703,0.08819 -8.14558,10.332529 -0.0372,0.05099 c -0.0427,0.04134 -0.0689,0.09784 -0.0703,0.161232 v 12.69724 c 0,0.111622 0.091,0.201197 0.20257,0.201197 h 8.27925 c 0.113,0 0.20257,-0.08957 0.20257,-0.201197 v -23.135836 c 0,-0.0303 -0.008,-0.05926 -0.0193,-0.08543"
       id="path15945"
       inkscape:export-xdpi="447.42999"
       inkscape:export-ydpi="447.42999" />
    <path
       inkscape:connector-curvature="0"
       style="fill:#ffffff;fill-opacity:1;fill-rule:nonzero;stroke:none;stroke-width:0.35277778"
       d="m 110.10672,-61.529022 v -0.642166 h 0.74827 v 0.655948 c 0,0.268715 0.11989,0.424434 0.39412,0.424434 0.25494,0 0.36794,-0.169498 0.36794,-0.424434 v -0.183282 c 0,-0.274229 -0.113,-0.443728 -0.35967,-0.676614 l -0.47267,-0.472668 c -0.46026,-0.451998 -0.6711,-0.727605 -0.6711,-1.277441 v -0.16261 c 0,-0.593933 0.34589,-1.051443 1.12861,-1.051443 0.80478,0 1.12172,0.395499 1.12172,1.085896 v 0.388605 h -0.73311 v -0.416168 c 0,-0.275608 -0.12678,-0.409275 -0.38172,-0.409275 -0.22462,0 -0.38034,0.126779 -0.38034,0.395496 v 0.09784 c 0,0.268718 0.14745,0.424437 0.38034,0.649058 l 0.51539,0.508494 c 0.43821,0.445108 0.64905,0.712445 0.64905,1.242991 v 0.23289 c 0,0.655944 -0.35277,1.12172 -1.17133,1.12172 -0.81856,0 -1.1355,-0.458886 -1.1355,-1.087271"
       id="path16427"
       inkscape:export-xdpi="447.42999"
       inkscape:export-ydpi="447.42999" />
    <path
       inkscape:connector-curvature="0"
       style="fill:#ffffff;fill-opacity:1;fill-rule:nonzero;stroke:none;stroke-width:0.35277778"
       d="m 115.09522,-65.282797 v 3.620107 c 0,0.741383 -0.31695,1.220938 -1.13689,1.220938 -0.84611,0 -1.19889,-0.479555 -1.19889,-1.220938 v -3.620107 h 0.80478 v 3.697276 c 0,0.282498 0.11299,0.472666 0.39411,0.472666 0.2825,0 0.3955,-0.190168 0.3955,-0.472666 v -3.697276 z m 0,0"
       id="path16429"
       inkscape:export-xdpi="447.42999"
       inkscape:export-ydpi="447.42999" />
    <path
       inkscape:connector-curvature="0"
       style="fill:#ffffff;fill-opacity:1;fill-rule:nonzero;stroke:none;stroke-width:0.35277778"
       d="m 115.43283,-61.529022 v -0.642166 h 0.74828 v 0.655948 c 0,0.268715 0.12127,0.424434 0.3955,0.424434 0.25493,0 0.36655,-0.169498 0.36655,-0.424434 v -0.183282 c 0,-0.274229 -0.11162,-0.443728 -0.35966,-0.676614 l -0.47267,-0.472668 c -0.45889,-0.451998 -0.66973,-0.727605 -0.66973,-1.277441 v -0.16261 c 0,-0.593933 0.34451,-1.051443 1.12862,-1.051443 0.80477,0 1.12172,0.395499 1.12172,1.085896 v 0.388605 h -0.73312 v -0.416168 c 0,-0.275608 -0.12678,-0.409275 -0.38171,-0.409275 -0.226,0 -0.38034,0.126779 -0.38034,0.395496 v 0.09784 c 0,0.268718 0.14745,0.424437 0.38034,0.649058 l 0.51538,0.508494 c 0.43684,0.445108 0.64906,0.712445 0.64906,1.242991 v 0.23289 c 0,0.655944 -0.35278,1.12172 -1.17133,1.12172 -0.81856,0 -1.13689,-0.458886 -1.13689,-1.087271"
       id="path16431"
       inkscape:export-xdpi="447.42999"
       inkscape:export-ydpi="447.42999" />
    <path
       inkscape:connector-curvature="0"
       style="fill:#ffffff;fill-opacity:1;fill-rule:nonzero;stroke:none;stroke-width:0.35277778"
       d="m 117.8885,-65.282797 h 2.13871 v 0.655945 h -0.66283 v 4.128603 h -0.81167 v -4.128603 h -0.66421 z m 0,0"
       id="path16433"
       inkscape:export-xdpi="447.42999"
       inkscape:export-ydpi="447.42999" />
    <path
       inkscape:connector-curvature="0"
       style="fill:#ffffff;fill-opacity:1;fill-rule:nonzero;stroke:none;stroke-width:0.35277778"
       d="m 120.85266,-62.015468 h 0.64217 l -0.31695,-1.919609 h -0.008 z m -1.00872,1.517219 0.90261,-4.784548 h 0.91777 l 0.91089,4.784548 h -0.82682 l -0.14746,-0.875055 h -0.85438 l -0.14056,0.875055 z m 0,0"
       id="path16435"
       inkscape:export-xdpi="447.42999"
       inkscape:export-ydpi="447.42999" />
    <path
       inkscape:connector-curvature="0"
       style="fill:#ffffff;fill-opacity:1;fill-rule:nonzero;stroke:none;stroke-width:0.35277778"
       d="m 122.82739,-65.282797 h 0.80477 v 4.784548 h -0.80477 z m 0,0"
       id="path16437"
       inkscape:export-xdpi="447.42999"
       inkscape:export-ydpi="447.42999" />
    <path
       inkscape:connector-curvature="0"
       style="fill:#ffffff;fill-opacity:1;fill-rule:nonzero;stroke:none;stroke-width:0.35277778"
       d="m 124.69738,-63.505129 v 3.00688 h -0.67799 v -4.784548 h 0.79099 l 0.86817,2.745052 v -2.745052 h 0.6711 v 4.784548 h -0.70555 z m 0,0"
       id="path16439"
       inkscape:export-xdpi="447.42999"
       inkscape:export-ydpi="447.42999" />
    <path
       inkscape:connector-curvature="0"
       style="fill:#ffffff;fill-opacity:1;fill-rule:nonzero;stroke:none;stroke-width:0.35277778"
       d="m 127.61056,-62.015468 h 0.64217 l -0.31695,-1.919609 h -0.007 z m -1.00873,1.517219 0.90262,-4.784548 h 0.91777 l 0.91089,4.784548 h -0.82545 l -0.14883,-0.875055 h -0.85438 l -0.14056,0.875055 z m 0,0"
       id="path16441"
       inkscape:export-xdpi="447.42999"
       inkscape:export-ydpi="447.42999" />
    <path
       inkscape:connector-curvature="0"
       style="fill:#ffffff;fill-opacity:1;fill-rule:nonzero;stroke:none;stroke-width:0.35277778"
       d="m 130.39006,-62.650744 v 1.496548 h 0.35416 c 0.26734,0 0.39412,-0.135048 0.39412,-0.388606 v -0.719336 c 0,-0.254938 -0.11989,-0.388606 -0.40102,-0.388606 z m 0,-0.614606 h 0.28388 c 0.26045,0 0.38033,-0.13367 0.38033,-0.38723 v -0.585664 c 0,-0.261828 -0.11988,-0.388608 -0.3886,-0.388608 h -0.27561 z m -0.80339,-2.017447 h 1.16444 c 0.80477,0 1.07211,0.373447 1.07211,1.051443 v 0.486445 c 0,0.40239 -0.14745,0.655948 -0.47956,0.762057 0.40239,0.09233 0.59945,0.359667 0.59945,0.797884 v 0.635277 c 0,0.676616 -0.30317,1.051442 -1.10794,1.051442 h -1.2485 z m 0,0"
       id="path16443"
       inkscape:export-xdpi="447.42999"
       inkscape:export-ydpi="447.42999" />
    <path
       inkscape:connector-curvature="0"
       style="fill:#ffffff;fill-opacity:1;fill-rule:nonzero;stroke:none;stroke-width:0.35277778"
       d="m 132.26695,-65.282797 h 0.80477 v 4.128601 h 0.9605 v 0.655947 h -1.76527 z m 0,0"
       id="path16445"
       inkscape:export-xdpi="447.42999"
       inkscape:export-ydpi="447.42999" />
    <path
       inkscape:connector-curvature="0"
       style="fill:#ffffff;fill-opacity:1;fill-rule:nonzero;stroke:none;stroke-width:0.35277778"
       d="m 134.32022,-65.282797 h 1.91961 v 0.655945 H 135.125 v 1.368393 h 0.79651 v 0.649054 H 135.125 v 1.455209 h 1.11483 v 0.655947 h -1.91961 z m 0,0"
       id="path16447"
       inkscape:export-xdpi="447.42999"
       inkscape:export-ydpi="447.42999" />
    <path
       inkscape:connector-curvature="0"
       style="fill:#ffffff;fill-opacity:1;fill-rule:nonzero;stroke:none;stroke-width:0.35277778"
       d="m 137.25545,-61.732971 v -2.315104 c 0,-0.748277 0.35278,-1.291223 1.19889,-1.291223 0.89021,0 1.13688,0.493339 1.13688,1.198894 v 0.564995 h -0.73449 v -0.628386 c 0,-0.296277 -0.0978,-0.465776 -0.38861,-0.465776 -0.28801,0 -0.40928,0.205327 -0.40928,0.494715 v 2.568663 c 0,0.28939 0.12127,0.493338 0.40928,0.493338 0.29077,0 0.38861,-0.183277 0.38861,-0.465775 v -0.881945 h 0.73449 v 0.825444 c 0,0.684886 -0.2825,1.193379 -1.13688,1.193379 -0.84611,0 -1.19889,-0.551215 -1.19889,-1.291219"
       id="path16449"
       inkscape:export-xdpi="447.42999"
       inkscape:export-ydpi="447.42999" />
    <path
       inkscape:connector-curvature="0"
       style="fill:#ffffff;fill-opacity:1;fill-rule:nonzero;stroke:none;stroke-width:0.35277778"
       d="m 139.95089,-65.282797 h 0.8034 v 4.784548 h -0.8034 z m 0,0"
       id="path16451"
       inkscape:export-xdpi="447.42999"
       inkscape:export-ydpi="447.42999" />
    <path
       inkscape:connector-curvature="0"
       style="fill:#ffffff;fill-opacity:1;fill-rule:nonzero;stroke:none;stroke-width:0.35277778"
       d="m 141.05057,-65.282797 h 2.13871 v 0.655945 h -0.66284 v 4.128603 h -0.81166 v -4.128603 h -0.66421 z m 0,0"
       id="path16453"
       inkscape:export-xdpi="447.42999"
       inkscape:export-ydpi="447.42999" />
    <path
       inkscape:connector-curvature="0"
       style="fill:#ffffff;fill-opacity:1;fill-rule:nonzero;stroke:none;stroke-width:0.35277778"
       d="m 143.48418,-65.282797 h 0.80477 v 4.784548 h -0.80477 z m 0,0"
       id="path16455"
       inkscape:export-xdpi="447.42999"
       inkscape:export-ydpi="447.42999" />
    <path
       inkscape:connector-curvature="0"
       style="fill:#ffffff;fill-opacity:1;fill-rule:nonzero;stroke:none;stroke-width:0.35277778"
       d="m 144.67756,-65.282797 h 1.91961 v 0.655945 h -1.11621 v 1.368393 h 0.79788 v 0.649054 h -0.79788 v 1.455209 h 1.11621 v 0.655947 h -1.91961 z m 0,0"
       id="path16457"
       inkscape:export-xdpi="447.42999"
       inkscape:export-ydpi="447.42999" />
    <path
       inkscape:connector-curvature="0"
       style="fill:#ffffff;fill-opacity:1;fill-rule:nonzero;stroke:none;stroke-width:0.35277778"
       d="m 146.8714,-61.529022 v -0.642166 h 0.74827 v 0.655948 c 0,0.268715 0.11989,0.424434 0.3955,0.424434 0.25356,0 0.36656,-0.169498 0.36656,-0.424434 v -0.183282 c 0,-0.274229 -0.113,-0.443728 -0.35967,-0.676614 l -0.47267,-0.472668 c -0.45888,-0.451998 -0.6711,-0.727605 -0.6711,-1.277441 v -0.16261 c 0,-0.593933 0.34589,-1.051443 1.12999,-1.051443 0.8034,0 1.12172,0.395499 1.12172,1.085896 v 0.388605 h -0.73449 v -0.416168 c 0,-0.275608 -0.12678,-0.409275 -0.38034,-0.409275 -0.226,0 -0.38172,0.126779 -0.38172,0.395496 v 0.09784 c 0,0.268718 0.14883,0.424437 0.38172,0.649058 l 0.51538,0.508494 c 0.43684,0.445108 0.64906,0.712445 0.64906,1.242991 v 0.23289 c 0,0.655944 -0.35278,1.12172 -1.17133,1.12172 -0.81856,0 -1.13688,-0.458886 -1.13688,-1.087271"
       id="path16459"
       inkscape:export-xdpi="447.42999"
       inkscape:export-ydpi="447.42999" />
    <path
       inkscape:connector-curvature="0"
       style="fill:#ffffff;fill-opacity:1;fill-rule:nonzero;stroke:none;stroke-width:0.35277778"
       d="m 111.03138,-55.312691 h 0.64217 l -0.31833,-1.919608 h -0.007 z m -1.0101,1.51722 0.90399,-4.784549 h 0.91778 l 0.9095,4.784549 h -0.82545 l -0.14882,-0.875055 h -0.85301 l -0.14056,0.875055 z m 0,0"
       id="path16461"
       inkscape:export-xdpi="447.42999"
       inkscape:export-ydpi="447.42999" />
    <path
       inkscape:connector-curvature="0"
       style="fill:#ffffff;fill-opacity:1;fill-rule:nonzero;stroke:none;stroke-width:0.35277778"
       d="m 113.6841,-56.802351 v 3.00688 h -0.67799 v -4.784549 h 0.78962 l 0.86816,2.745052 v -2.745052 h 0.6711 v 4.784549 h -0.70555 z m 0,0"
       id="path16463"
       inkscape:export-xdpi="447.42999"
       inkscape:export-ydpi="447.42999" />
    <path
       inkscape:connector-curvature="0"
       style="fill:#ffffff;fill-opacity:1;fill-rule:nonzero;stroke:none;stroke-width:0.35277778"
       d="m 116.8591,-54.451419 c 0.33073,0 0.45889,-0.198438 0.45889,-0.487825 v -2.505272 c 0,-0.282498 -0.12816,-0.479559 -0.45889,-0.479559 h -0.33899 v 3.472656 z m 1.26229,-2.844271 v 2.215885 c 0,0.733118 -0.30317,1.284334 -1.16445,1.284334 h -1.24161 v -4.784549 h 1.24161 c 0.86128,0 1.16445,0.542946 1.16445,1.28433"
       id="path16465"
       inkscape:export-xdpi="447.42999"
       inkscape:export-ydpi="447.42999" />
    <path
       inkscape:connector-curvature="0"
       style="fill:#ffffff;fill-opacity:1;fill-rule:nonzero;stroke:none;stroke-width:0.35277778"
       d="m 119.16594,-55.030193 v -2.315105 c 0,-0.748277 0.35278,-1.291223 1.19889,-1.291223 0.89022,0 1.13689,0.493339 1.13689,1.198894 v 0.564995 h -0.7345 v -0.628385 c 0,-0.296277 -0.0978,-0.465776 -0.38861,-0.465776 -0.28801,0 -0.40927,0.205327 -0.40927,0.494714 v 2.568663 c 0,0.289391 0.12126,0.493339 0.40927,0.493339 0.29077,0 0.38861,-0.183279 0.38861,-0.465776 v -0.881945 h 0.7345 v 0.825444 c 0,0.684886 -0.2825,1.19338 -1.13689,1.19338 -0.84611,0 -1.19889,-0.551215 -1.19889,-1.291219"
       id="path16467"
       inkscape:export-xdpi="447.42999"
       inkscape:export-ydpi="447.42999" />
    <path
       inkscape:connector-curvature="0"
       style="fill:#ffffff;fill-opacity:1;fill-rule:nonzero;stroke:none;stroke-width:0.35277778"
       d="m 123.49023,-54.903416 v -2.568663 c 0,-0.289387 -0.12678,-0.494714 -0.41617,-0.494714 -0.28113,0 -0.40928,0.205327 -0.40928,0.494714 v 2.568663 c 0,0.289391 0.12815,0.493339 0.40928,0.493339 0.28939,0 0.41617,-0.203948 0.41617,-0.493339 m -1.62885,-0.126777 v -2.315105 c 0,-0.748277 0.36656,-1.291223 1.21268,-1.291223 0.85438,0 1.22094,0.542946 1.22094,1.291223 v 2.315105 c 0,0.740004 -0.36656,1.291219 -1.22094,1.291219 -0.84612,0 -1.21268,-0.551215 -1.21268,-1.291219"
       id="path16469"
       inkscape:export-xdpi="447.42999"
       inkscape:export-ydpi="447.42999" />
    <path
       inkscape:connector-curvature="0"
       style="fill:#ffffff;fill-opacity:1;fill-rule:nonzero;stroke:none;stroke-width:0.35277778"
       d="m 126.89122,-56.900191 h -0.0207 l -0.54432,3.10472 h -0.37346 l -0.59944,-3.10472 h -0.0138 v 3.10472 h -0.66421 v -4.784549 h 0.93982 l 0.5209,2.695441 h 0.008 l 0.4644,-2.695441 h 1.01699 v 4.784549 h -0.73449 z m 0,0"
       id="path16471"
       inkscape:export-xdpi="447.42999"
       inkscape:export-ydpi="447.42999" />
    <path
       inkscape:connector-curvature="0"
       style="fill:#ffffff;fill-opacity:1;fill-rule:nonzero;stroke:none;stroke-width:0.35277778"
       d="m 130.22194,-56.900191 h -0.022 l -0.54295,3.10472 h -0.37344 l -0.60083,-3.10472 h -0.0138 v 3.10472 h -0.66282 v -4.784549 h 0.93844 l 0.5209,2.695441 h 0.008 l 0.46578,-2.695441 h 1.01561 v 4.784549 h -0.73311 z m 0,0"
       id="path16473"
       inkscape:export-xdpi="447.42999"
       inkscape:export-ydpi="447.42999" />
    <path
       inkscape:connector-curvature="0"
       style="fill:#ffffff;fill-opacity:1;fill-rule:nonzero;stroke:none;stroke-width:0.35277778"
       d="m 133.67117,-58.58002 v 3.620107 c 0,0.741384 -0.31695,1.220939 -1.13688,1.220939 -0.84612,0 -1.19889,-0.479555 -1.19889,-1.220939 v -3.620107 h 0.80477 v 3.697277 c 0,0.282497 0.113,0.472666 0.39412,0.472666 0.2825,0 0.3955,-0.190169 0.3955,-0.472666 v -3.697277 z m 0,0"
       id="path16475"
       inkscape:export-xdpi="447.42999"
       inkscape:export-ydpi="447.42999" />
    <path
       inkscape:connector-curvature="0"
       style="fill:#ffffff;fill-opacity:1;fill-rule:nonzero;stroke:none;stroke-width:0.35277778"
       d="m 134.7295,-56.802351 v 3.00688 h -0.67799 v -4.784549 h 0.79099 l 0.86817,2.745052 v -2.745052 h 0.66973 v 4.784549 h -0.70556 z m 0,0"
       id="path16477"
       inkscape:export-xdpi="447.42999"
       inkscape:export-ydpi="447.42999" />
    <path
       inkscape:connector-curvature="0"
       style="fill:#ffffff;fill-opacity:1;fill-rule:nonzero;stroke:none;stroke-width:0.35277778"
       d="m 136.76073,-58.58002 h 0.80478 v 4.784549 h -0.80478 z m 0,0"
       id="path16479"
       inkscape:export-xdpi="447.42999"
       inkscape:export-ydpi="447.42999" />
    <path
       inkscape:connector-curvature="0"
       style="fill:#ffffff;fill-opacity:1;fill-rule:nonzero;stroke:none;stroke-width:0.35277778"
       d="m 137.86178,-58.58002 h 2.13872 v 0.655945 h -0.66422 v 4.128604 h -0.81166 v -4.128604 h -0.66284 z m 0,0"
       id="path16481"
       inkscape:export-xdpi="447.42999"
       inkscape:export-ydpi="447.42999" />
    <path
       inkscape:connector-curvature="0"
       style="fill:#ffffff;fill-opacity:1;fill-rule:nonzero;stroke:none;stroke-width:0.35277778"
       d="m 140.2954,-58.58002 h 0.80477 v 4.784549 h -0.80477 z m 0,0"
       id="path16483"
       inkscape:export-xdpi="447.42999"
       inkscape:export-ydpi="447.42999" />
    <path
       inkscape:connector-curvature="0"
       style="fill:#ffffff;fill-opacity:1;fill-rule:nonzero;stroke:none;stroke-width:0.35277778"
       d="m 141.48878,-58.58002 h 1.91823 v 0.655945 h -1.11483 v 1.368393 h 0.79788 v 0.649054 h -0.79788 v 1.455209 h 1.11483 v 0.655948 h -1.91823 z m 0,0"
       id="path16485"
       inkscape:export-xdpi="447.42999"
       inkscape:export-ydpi="447.42999" />
    <path
       inkscape:connector-curvature="0"
       style="fill:#ffffff;fill-opacity:1;fill-rule:nonzero;stroke:none;stroke-width:0.35277778"
       d="m 143.68262,-54.826246 v -0.642164 h 0.74827 v 0.655947 c 0,0.268715 0.11989,0.424434 0.3955,0.424434 0.25356,0 0.36656,-0.169499 0.36656,-0.424434 v -0.183282 c 0,-0.274228 -0.113,-0.443727 -0.35967,-0.676613 l -0.47267,-0.47267 c -0.45889,-0.451996 -0.6711,-0.727604 -0.6711,-1.27744 v -0.162609 c 0,-0.593933 0.34589,-1.051444 1.12999,-1.051444 0.8034,0 1.12172,0.395499 1.12172,1.085896 v 0.388606 h -0.73449 v -0.416168 c 0,-0.275608 -0.12678,-0.409275 -0.38034,-0.409275 -0.226,0 -0.38172,0.126777 -0.38172,0.395495 v 0.09784 c 0,0.268717 0.14883,0.424437 0.38172,0.649058 l 0.51401,0.508494 c 0.43821,0.445106 0.65043,0.712445 0.65043,1.242991 v 0.23289 c 0,0.655944 -0.35415,1.12172 -1.17133,1.12172 -0.81994,0 -1.13688,-0.458886 -1.13688,-1.087272"
       id="path16487"
       inkscape:export-xdpi="447.42999"
       inkscape:export-ydpi="447.42999" />
  </g>
</svg>
