<?xml version="1.0" encoding="UTF-8" standalone="no"?>
<!-- Created with Inkscape (http://www.inkscape.org/) -->

<svg
   xmlns:dc="http://purl.org/dc/elements/1.1/"
   xmlns:cc="http://creativecommons.org/ns#"
   xmlns:rdf="http://www.w3.org/1999/02/22-rdf-syntax-ns#"
   xmlns:svg="http://www.w3.org/2000/svg"
   xmlns="http://www.w3.org/2000/svg"
   xmlns:sodipodi="http://sodipodi.sourceforge.net/DTD/sodipodi-0.dtd"
   xmlns:inkscape="http://www.inkscape.org/namespaces/inkscape"
   width="56.769657mm"
   height="56.772423mm"
   viewBox="0 0 56.769657 56.772423"
   version="1.1"
   id="svg28797"
   inkscape:version="0.92.1 r15371"
   sodipodi:docname="SDG_15.svg"
   inkscape:export-filename="C:\Users\azvol\OneDrive - Conservation International\Trends.Earth\SDG_15.png"
   inkscape:export-xdpi="447.42999"
   inkscape:export-ydpi="447.42999">
  <defs
     id="defs28791" />
  <sodipodi:namedview
     id="base"
     pagecolor="#ffffff"
     bordercolor="#666666"
     borderopacity="1.0"
     inkscape:pageopacity="0.0"
     inkscape:pageshadow="2"
     inkscape:zoom="5.2988977"
     inkscape:cx="107.65868"
     inkscape:cy="107.28647"
     inkscape:document-units="mm"
     inkscape:current-layer="layer1"
     showgrid="false"
     inkscape:window-width="2560"
     inkscape:window-height="1360"
     inkscape:window-x="-11"
     inkscape:window-y="-11"
     inkscape:window-maximized="1"
     fit-margin-top="0"
     fit-margin-left="0"
     fit-margin-right="0"
     fit-margin-bottom="0" />
  <metadata
     id="metadata28794">
    <rdf:RDF>
      <cc:Work
         rdf:about="">
        <dc:format>image/svg+xml</dc:format>
        <dc:type
           rdf:resource="http://purl.org/dc/dcmitype/StillImage" />
        <dc:title />
      </cc:Work>
    </rdf:RDF>
  </metadata>
  <g
     inkscape:label="Layer 1"
     inkscape:groupmode="layer"
     id="layer1"
     transform="translate(143.28959,10.332639)">
    <path
       inkscape:connector-curvature="0"
       style="fill:#54bf28;fill-opacity:1;fill-rule:nonzero;stroke:none;stroke-width:0.35277778"
       d="m -86.519932,46.439782 h -56.769658 v -56.772421 h 56.769658 z m 0,0"
       id="path14093" />
    <path
       inkscape:connector-curvature="0"
       style="fill:#ffffff;fill-opacity:1;fill-rule:nonzero;stroke:none;stroke-width:0.35277778"
       d="m -139.13343,-3.5030789 v 2.00918 h 0.0165 l 1.35048,-1.4014601 h 0.0179 v 8.7615599 h 1.92374 V -5.5797789 h -1.53651 z m 0,0"
       id="path14143" />
    <path
       inkscape:connector-curvature="0"
       style="fill:#ffffff;fill-opacity:1;fill-rule:nonzero;stroke:none;stroke-width:0.35277778"
       d="m -131.24967,-1.950029 c -0.7593,0 -1.31603,0.2700899 -1.62058,0.79375 h -0.0165 v -2.8539202 h 3.30867 v -1.5695797 h -5.06429 v 6.45058983 h 1.75562 v -0.25493 c 0,-0.67386 0.30317,-1.04593 0.84336,-1.04593 0.59118,0 0.8282,0.40514 0.8282,1.02939 V 3.3692009 c 0,0.60633 -0.2191,1.02939 -0.81028,1.02939 -0.6587,0 -0.89435,-0.43959 -0.89435,-1.11483 v -1.43454 h -1.757 v 1.30087 c 0,1.73771 0.69315,2.85254 2.65135,2.85254 1.94165,0 2.73403,-1.03077 2.73403,-2.6169 V 0.58281093 c 0,-1.80661003 -0.92742,-2.53283993 -1.9582,-2.53283993"
       id="path14145" />
    <path
       inkscape:connector-curvature="0"
       style="fill:#ffffff;fill-opacity:1;fill-rule:nonzero;stroke:none;stroke-width:0.35277778"
       d="m -119.78164,28.052622 c 0.0689,0 0.1254,0.0565 0.1254,0.125399 v 4.134112 c 0,0.0703 -0.0565,0.125399 -0.1254,0.125399 h -1.67294 c -0.0689,0 -0.1254,-0.0551 -0.1254,-0.125399 v -4.134112 c 0,-0.0689 0.0565,-0.125399 0.1254,-0.125399 z m 0,0"
       id="path14243" />
    <path
       inkscape:connector-curvature="0"
       style="fill:#ffffff;fill-opacity:1;fill-rule:nonzero;stroke:none;stroke-width:0.35277778"
       d="m -101.41101,34.212452 h -27.56766 c -0.0689,0 -0.1254,0.0593 -0.1254,0.12953 v 1.68534 c 0,0.0689 0.0565,0.124029 0.1254,0.124029 h 27.56766 c 0.0689,0 0.12678,-0.0551 0.12678,-0.124029 v -1.68534 c 0,-0.0703 -0.0579,-0.12953 -0.12678,-0.12953"
       id="path14245" />
    <path
       inkscape:connector-curvature="0"
       style="fill:#ffffff;fill-opacity:1;fill-rule:nonzero;stroke:none;stroke-width:0.35277778"
       d="m -101.41101,37.562461 h -27.56766 c -0.0689,0 -0.1254,0.0551 -0.1254,0.124021 v 1.689481 c 0,0.0675 0.0565,0.124018 0.1254,0.124018 h 27.56766 c 0.0689,0 0.12678,-0.0565 0.12678,-0.124018 v -1.689481 c 0,-0.0689 -0.0579,-0.124021 -0.12678,-0.124021"
       id="path14247" />
    <path
       inkscape:connector-curvature="0"
       style="fill:#ffffff;fill-opacity:1;fill-rule:nonzero;stroke:none;stroke-width:0.35277778"
       d="m -106.65583,23.477531 c -0.3445,-0.270089 -1.26366,-0.899861 -2.38538,-0.899861 -0.80064,0 -1.54616,0.316952 -2.21313,0.941202 -0.0482,0.0455 -0.0744,0.10749 -0.0744,0.173638 v 0.150202 c 0,0.073 0.0248,0.141938 0.0786,0.187409 0.0606,0.0455 0.12265,0.0634 0.1943,0.0455 0.0165,-0.0011 0.0358,-0.007 0.0524,-0.01241 0.051,-0.01791 0.0978,-0.0496 0.1378,-0.0882 0.1447,-0.0965 0.53882,-0.228761 1.10381,-0.228761 0.58429,0 1.73082,0.15572 2.84014,1.189251 l 0.0262,0.02339 c 0.062,0.0648 0.14745,0.0992 0.23978,0.0992 0.0868,0 0.17639,-0.0358 0.23289,-0.0978 l 0.022,-0.02199 c 1.11621,-1.036291 2.26136,-1.192011 2.84427,-1.192011 0.56913,0 0.96325,0.132292 1.10794,0.228761 0.0386,0.0386 0.0882,0.0703 0.15159,0.0937 0.0248,0.007 0.0951,0.02199 0.16123,0.006 0.10197,-0.0289 0.17501,-0.121272 0.17501,-0.22738 v -0.13366 c 0,-0.0634 -0.0276,-0.12678 -0.0744,-0.170881 -0.67386,-0.640778 -1.42627,-0.965999 -2.24069,-0.965999 -1.1107,0 -2.02572,0.62012 -2.37987,0.901229"
       id="path14249" />
    <path
       inkscape:connector-curvature="0"
       style="fill:#ffffff;fill-opacity:1;fill-rule:nonzero;stroke:none;stroke-width:0.35277778"
       d="m -108.36735,12.489061 c -0.0579,0.0276 -0.1006,0.0813 -0.11989,0.14607 l -0.0276,0.091 c -0.0207,0.073 -0.008,0.14883 0.0358,0.20808 0.0427,0.0551 0.10335,0.0896 0.17087,0.0923 0.0124,0.001 0.0248,0.005 0.0345,0.001 0.0468,-0.001 0.0909,-0.011 0.13367,-0.0345 0.0234,-0.004 0.0744,-0.0179 0.16674,-0.0179 0.12265,0 1.23473,0.0372 1.96922,1.287091 l 0.01,0.0166 c 0.04,0.073 0.10197,0.12264 0.17639,0.14194 0.0207,0.007 0.062,0.0138 0.0882,0.0138 0.0496,0 0.10197,-0.0138 0.1378,-0.0345 l 0.0193,-0.01 c 0.40101,-0.19981 0.81718,-0.30316 1.22921,-0.30316 0.69591,0 1.15066,0.28387 1.25677,0.40238 0.022,0.04 0.0551,0.0744 0.0923,0.10197 0.0234,0.0138 0.0648,0.0345 0.0896,0.0441 0.0124,0.003 0.0275,0.004 0.0413,0.006 0.007,10e-4 0.0166,10e-4 0.0248,10e-4 0.0372,0 0.073,-0.01 0.10887,-0.0276 0.0565,-0.0289 0.0992,-0.0799 0.11713,-0.14193 l 0.0234,-0.0799 c 0.007,-0.0221 0.01,-0.0441 0.01,-0.0675 0,-0.0427 -0.011,-0.0854 -0.0331,-0.11852 -0.53468,-0.93017 -1.31189,-1.12447 -1.86862,-1.12447 -0.41616,0 -0.77859,0.10886 -0.99356,0.18603 -0.25218,-0.339 -0.89021,-1.0418 -1.85898,-1.0418 -0.34037,0 -0.68764,0.0882 -1.03352,0.26183"
       id="path14251" />
    <path
       inkscape:connector-curvature="0"
       style="fill:#ffffff;fill-opacity:1;fill-rule:nonzero;stroke:none;stroke-width:0.35277778"
       d="m -114.19231,16.730651 0.008,0.124031 c 0.004,0.0772 0.0441,0.14469 0.11024,0.186029 0.0537,0.0345 0.12403,0.0455 0.18466,0.0276 0.0138,-0.003 0.0289,-0.008 0.0413,-0.01241 0.0468,-0.01929 0.0882,-0.0496 0.11851,-0.0882 0.11713,-0.0841 0.49472,-0.2384 1.05144,-0.2384 0.53606,0 1.35048,0.14332 2.18006,0.824069 l 0.0193,0.02069 c 0.0593,0.051 0.13505,0.0799 0.21222,0.0799 h 0.0207 c 0.0868,-0.007 0.16674,-0.0469 0.21635,-0.10473 l 0.0179,-0.02069 c 0.91915,-0.971511 1.90996,-1.116211 2.41708,-1.116211 0.36242,0 0.61874,0.0744 0.71933,0.130921 0.0372,0.0331 0.0841,0.0579 0.14332,0.0744 0.0165,0.004 0.0565,0.01101 0.1006,0.007 0.0179,-0.003 0.04,-0.008 0.0579,-0.01381 0.0992,-0.0345 0.16261,-0.130918 0.15572,-0.237029 l -0.005,-0.108861 c -0.004,-0.0634 -0.0345,-0.121269 -0.0827,-0.163989 -0.54846,-0.46026 -1.14102,-0.69315 -1.76389,-0.69315 -0.97014,0 -1.74322,0.57326 -2.06293,0.852999 -0.29352,-0.199809 -1.00459,-0.610469 -1.83968,-0.610469 -0.73312,0 -1.39181,0.30455 -1.95543,0.904 -0.0441,0.0469 -0.0675,0.11162 -0.0648,0.17639"
       id="path14253" />
    <path
       inkscape:connector-curvature="0"
       style="fill:#ffffff;fill-opacity:1;fill-rule:nonzero;stroke:none;stroke-width:0.35277778"
       d="m -128.1422,18.943782 c 0,-1.650892 1.33808,-2.988961 2.98897,-2.988961 0.0634,0 0.12678,0.006 0.19154,0.01 0.1571,-2.08911 1.89756,-3.73724 4.02801,-3.73724 2.23242,0 4.04317,1.81074 4.04317,4.04454 0,0.632521 -0.14883,1.229209 -0.40928,1.762511 2.02433,0.447871 3.54018,2.250339 3.54018,4.40835 0,2.495619 -2.02434,4.518578 -4.51997,4.518578 -0.1819,0 -6.03029,-0.0344 -6.03029,-0.0344 -1.76803,-0.0011 -3.19981,-1.433161 -3.19981,-3.19981 0,-0.848871 0.33211,-1.617811 0.8723,-2.19107 -0.89848,-0.51539 -1.50482,-1.4814 -1.50482,-2.592099"
       id="path14255" />
    <path
       inkscape:connector-curvature="0"
       style="fill:#ffffff;fill-opacity:1;fill-rule:nonzero;stroke:none;stroke-width:0.35277778"
       d="m -139.13343,-3.5030789 v 2.00918 h 0.0165 l 1.35048,-1.4014601 h 0.0179 v 8.7615599 h 1.92374 V -5.5797789 h -1.53651 z m 0,0"
       id="path15857" />
    <path
       inkscape:connector-curvature="0"
       style="fill:#ffffff;fill-opacity:1;fill-rule:nonzero;stroke:none;stroke-width:0.35277778"
       d="m -131.24967,-1.950029 c -0.7593,0 -1.31603,0.2700899 -1.62058,0.79375 h -0.0165 v -2.8539202 h 3.30867 v -1.5695797 h -5.06429 v 6.45058983 h 1.75562 v -0.25493 c 0,-0.67386 0.30317,-1.04593 0.84336,-1.04593 0.59118,0 0.8282,0.40514 0.8282,1.02939 V 3.3692009 c 0,0.60633 -0.2191,1.02939 -0.81028,1.02939 -0.6587,0 -0.89435,-0.43959 -0.89435,-1.11483 v -1.43454 h -1.757 v 1.30087 c 0,1.73771 0.69315,2.85254 2.65135,2.85254 1.94165,0 2.73403,-1.03077 2.73403,-2.6169 V 0.58281093 c 0,-1.80661003 -0.92742,-2.53283993 -1.9582,-2.53283993"
       id="path15859" />
    <path
       inkscape:connector-curvature="0"
       style="fill:#ffffff;fill-opacity:1;fill-rule:nonzero;stroke:none;stroke-width:0.35277778"
       d="m -119.78164,28.052622 c 0.0689,0 0.1254,0.0565 0.1254,0.125399 v 4.134112 c 0,0.0703 -0.0565,0.125399 -0.1254,0.125399 h -1.67294 c -0.0689,0 -0.1254,-0.0551 -0.1254,-0.125399 v -4.134112 c 0,-0.0689 0.0565,-0.125399 0.1254,-0.125399 z m 0,0"
       id="path15957" />
    <path
       inkscape:connector-curvature="0"
       style="fill:#ffffff;fill-opacity:1;fill-rule:nonzero;stroke:none;stroke-width:0.35277778"
       d="m -101.41101,34.212452 h -27.56766 c -0.0689,0 -0.1254,0.0593 -0.1254,0.12953 v 1.68534 c 0,0.0689 0.0565,0.124029 0.1254,0.124029 h 27.56766 c 0.0689,0 0.12678,-0.0551 0.12678,-0.124029 v -1.68534 c 0,-0.0703 -0.0579,-0.12953 -0.12678,-0.12953"
       id="path15959" />
    <path
       inkscape:connector-curvature="0"
       style="fill:#ffffff;fill-opacity:1;fill-rule:nonzero;stroke:none;stroke-width:0.35277778"
       d="m -101.41101,37.562461 h -27.56766 c -0.0689,0 -0.1254,0.0551 -0.1254,0.124021 v 1.689481 c 0,0.0675 0.0565,0.124018 0.1254,0.124018 h 27.56766 c 0.0689,0 0.12678,-0.0565 0.12678,-0.124018 v -1.689481 c 0,-0.0689 -0.0579,-0.124021 -0.12678,-0.124021"
       id="path15961" />
    <path
       inkscape:connector-curvature="0"
       style="fill:#ffffff;fill-opacity:1;fill-rule:nonzero;stroke:none;stroke-width:0.35277778"
       d="m -106.65583,23.477531 c -0.3445,-0.270089 -1.26366,-0.899861 -2.38538,-0.899861 -0.80064,0 -1.54616,0.316952 -2.21313,0.941202 -0.0482,0.0455 -0.0744,0.10749 -0.0744,0.173638 v 0.150202 c 0,0.073 0.0248,0.141938 0.0786,0.187409 0.0606,0.0455 0.12265,0.0634 0.1943,0.0455 0.0165,-0.0011 0.0358,-0.007 0.0524,-0.01241 0.051,-0.01791 0.0978,-0.0496 0.1378,-0.0882 0.1447,-0.0965 0.53882,-0.228761 1.10381,-0.228761 0.58429,0 1.73082,0.15572 2.84014,1.189251 l 0.0262,0.02339 c 0.062,0.0648 0.14745,0.0992 0.23978,0.0992 0.0868,0 0.17639,-0.0358 0.23289,-0.0978 l 0.022,-0.02199 c 1.11621,-1.036291 2.26136,-1.192011 2.84427,-1.192011 0.56913,0 0.96325,0.132292 1.10794,0.228761 0.0386,0.0386 0.0882,0.0703 0.15159,0.0937 0.0248,0.007 0.0951,0.02199 0.16123,0.006 0.10197,-0.0289 0.17501,-0.121272 0.17501,-0.22738 v -0.13366 c 0,-0.0634 -0.0276,-0.12678 -0.0744,-0.170881 -0.67386,-0.640778 -1.42627,-0.965999 -2.24069,-0.965999 -1.1107,0 -2.02572,0.62012 -2.37987,0.901229"
       id="path15963" />
    <path
       inkscape:connector-curvature="0"
       style="fill:#ffffff;fill-opacity:1;fill-rule:nonzero;stroke:none;stroke-width:0.35277778"
       d="m -108.36735,12.489061 c -0.0579,0.0276 -0.1006,0.0813 -0.11989,0.14607 l -0.0276,0.091 c -0.0207,0.073 -0.008,0.14883 0.0358,0.20808 0.0427,0.0551 0.10335,0.0896 0.17087,0.0923 0.0124,0.001 0.0248,0.005 0.0345,0.001 0.0468,-0.001 0.0909,-0.011 0.13367,-0.0345 0.0234,-0.004 0.0744,-0.0179 0.16674,-0.0179 0.12265,0 1.23473,0.0372 1.96922,1.287091 l 0.01,0.0166 c 0.04,0.073 0.10197,0.12264 0.17639,0.14194 0.0207,0.007 0.062,0.0138 0.0882,0.0138 0.0496,0 0.10197,-0.0138 0.1378,-0.0345 l 0.0193,-0.01 c 0.40101,-0.19981 0.81718,-0.30316 1.22921,-0.30316 0.69591,0 1.15066,0.28387 1.25677,0.40238 0.022,0.04 0.0551,0.0744 0.0923,0.10197 0.0234,0.0138 0.0648,0.0345 0.0896,0.0441 0.0124,0.003 0.0275,0.004 0.0413,0.006 0.007,10e-4 0.0166,10e-4 0.0248,10e-4 0.0372,0 0.073,-0.01 0.10887,-0.0276 0.0565,-0.0289 0.0992,-0.0799 0.11713,-0.14193 l 0.0234,-0.0799 c 0.007,-0.0221 0.01,-0.0441 0.01,-0.0675 0,-0.0427 -0.011,-0.0854 -0.0331,-0.11852 -0.53468,-0.93017 -1.31189,-1.12447 -1.86862,-1.12447 -0.41616,0 -0.77859,0.10886 -0.99356,0.18603 -0.25218,-0.339 -0.89021,-1.0418 -1.85898,-1.0418 -0.34037,0 -0.68764,0.0882 -1.03352,0.26183"
       id="path15965" />
    <path
       inkscape:connector-curvature="0"
       style="fill:#ffffff;fill-opacity:1;fill-rule:nonzero;stroke:none;stroke-width:0.35277778"
       d="m -114.19231,16.730651 0.008,0.124031 c 0.004,0.0772 0.0441,0.14469 0.11024,0.186029 0.0537,0.0345 0.12403,0.0455 0.18466,0.0276 0.0138,-0.003 0.0289,-0.008 0.0413,-0.01241 0.0468,-0.01929 0.0882,-0.0496 0.11851,-0.0882 0.11713,-0.0841 0.49472,-0.2384 1.05144,-0.2384 0.53606,0 1.35048,0.14332 2.18006,0.824069 l 0.0193,0.02069 c 0.0593,0.051 0.13505,0.0799 0.21222,0.0799 h 0.0207 c 0.0868,-0.007 0.16674,-0.0469 0.21635,-0.10473 l 0.0179,-0.02069 c 0.91915,-0.971511 1.90996,-1.116211 2.41708,-1.116211 0.36242,0 0.61874,0.0744 0.71933,0.130921 0.0372,0.0331 0.0841,0.0579 0.14332,0.0744 0.0165,0.004 0.0565,0.01101 0.1006,0.007 0.0179,-0.003 0.04,-0.008 0.0579,-0.01381 0.0992,-0.0345 0.16261,-0.130918 0.15572,-0.237029 l -0.005,-0.108861 c -0.004,-0.0634 -0.0345,-0.121269 -0.0827,-0.163989 -0.54846,-0.46026 -1.14102,-0.69315 -1.76389,-0.69315 -0.97014,0 -1.74322,0.57326 -2.06293,0.852999 -0.29352,-0.199809 -1.00459,-0.610469 -1.83968,-0.610469 -0.73312,0 -1.39181,0.30455 -1.95543,0.904 -0.0441,0.0469 -0.0675,0.11162 -0.0648,0.17639"
       id="path15967" />
    <path
       inkscape:connector-curvature="0"
       style="fill:#ffffff;fill-opacity:1;fill-rule:nonzero;stroke:none;stroke-width:0.35277778"
       d="m -128.1422,18.943782 c 0,-1.650892 1.33808,-2.988961 2.98897,-2.988961 0.0634,0 0.12678,0.006 0.19154,0.01 0.1571,-2.08911 1.89756,-3.73724 4.02801,-3.73724 2.23242,0 4.04317,1.81074 4.04317,4.04454 0,0.632521 -0.14883,1.229209 -0.40928,1.762511 2.02433,0.447871 3.54018,2.250339 3.54018,4.40835 0,2.495619 -2.02434,4.518578 -4.51997,4.518578 -0.1819,0 -6.03029,-0.0344 -6.03029,-0.0344 -1.76803,-0.0011 -3.19981,-1.433161 -3.19981,-3.19981 0,-0.848871 0.33211,-1.617811 0.8723,-2.19107 -0.89848,-0.51539 -1.50482,-1.4814 -1.50482,-2.592099"
       id="path15969" />
    <path
       inkscape:connector-curvature="0"
       style="fill:#ffffff;fill-opacity:1;fill-rule:nonzero;stroke:none;stroke-width:0.35277778"
       d="m -125.66586,-5.619749 h 0.80477 v 4.1286099 h 0.9605 v 0.65594023 h -1.76527 z m 0,0"
       id="path16559" />
    <path
       inkscape:connector-curvature="0"
       style="fill:#ffffff;fill-opacity:1;fill-rule:nonzero;stroke:none;stroke-width:0.35277778"
       d="m -123.53404,-5.619749 h 0.8034 v 4.78455013 h -0.8034 z m 0,0"
       id="path16561" />
    <path
       inkscape:connector-curvature="0"
       style="fill:#ffffff;fill-opacity:1;fill-rule:nonzero;stroke:none;stroke-width:0.35277778"
       d="m -122.26487,-5.619749 h 1.88516 v 0.65595 h -1.08038 v 1.3697698 h 0.80477 v 0.6490603 h -0.80477 v 2.10977003 h -0.80478 z m 0,0"
       id="path16563" />
    <path
       inkscape:connector-curvature="0"
       style="fill:#ffffff;fill-opacity:1;fill-rule:nonzero;stroke:none;stroke-width:0.35277778"
       d="m -120.02831,-5.619749 h 1.91961 v 0.65595 h -1.11483 v 1.3697698 h 0.79788 v 0.6490603 h -0.79788 v 1.4538298 h 1.11483 v 0.65594023 h -1.91961 z m 0,0"
       id="path16565" />
    <path
       inkscape:connector-curvature="0"
       style="fill:#ffffff;fill-opacity:1;fill-rule:nonzero;stroke:none;stroke-width:0.35277778"
       d="m -124.03426,4.7596409 v -2.56866 c 0,-0.28939 -0.12816,-0.49334 -0.41755,-0.49334 -0.28112,0 -0.40928,0.20395 -0.40928,0.49334 v 2.56866 c 0,0.28939 0.12816,0.49471 0.40928,0.49471 0.28939,0 0.41755,-0.20532 0.41755,-0.49471 m -1.63022,-0.12678 v -2.31511 c 0,-0.74827 0.36656,-1.29122 1.21267,-1.29122 0.85438,0 1.22094,0.54295 1.22094,1.29122 v 2.31511 c 0,0.74138 -0.36656,1.29122 -1.22094,1.29122 -0.84611,0 -1.21267,-0.54984 -1.21267,-1.29122"
       id="path16567" />
    <path
       inkscape:connector-curvature="0"
       style="fill:#ffffff;fill-opacity:1;fill-rule:nonzero;stroke:none;stroke-width:0.35277778"
       d="m -122.09537,2.8620809 v 3.0055 h -0.67799 v -4.78455 h 0.791 l 0.86816,2.74505 v -2.74505 h 0.6711 v 4.78455 h -0.70555 z m 0,0"
       id="path16569" />
    <path
       inkscape:connector-curvature="0"
       style="fill:#ffffff;fill-opacity:1;fill-rule:nonzero;stroke:none;stroke-width:0.35277778"
       d="m -118.5042,1.0830309 h 0.80478 v 4.1286 h 0.95911 v 0.65595 h -1.76389 z m 0,0"
       id="path16571" />
    <path
       inkscape:connector-curvature="0"
       style="fill:#ffffff;fill-opacity:1;fill-rule:nonzero;stroke:none;stroke-width:0.35277778"
       d="m -115.49181,4.3503609 h 0.64217 l -0.31695,-1.91961 h -0.008 z m -1.00872,1.51722 0.90261,-4.78455 h 0.91778 l 0.91088,4.78455 h -0.82682 l -0.14745,-0.87505 h -0.85439 l -0.14056,0.87505 z m 0,0"
       id="path16573" />
    <path
       inkscape:connector-curvature="0"
       style="fill:#ffffff;fill-opacity:1;fill-rule:nonzero;stroke:none;stroke-width:0.35277778"
       d="m -112.76191,2.8620809 v 3.0055 h -0.67662 v -4.78455 h 0.78962 l 0.86816,2.74505 v -2.74505 h 0.67111 v 4.78455 h -0.70556 z m 0,0"
       id="path16575" />
    <path
       inkscape:connector-curvature="0"
       style="fill:#ffffff;fill-opacity:1;fill-rule:nonzero;stroke:none;stroke-width:0.35277778"
       d="m -109.50836,5.2116309 c 0.33073,0 0.45888,-0.19705 0.45888,-0.48644 v -2.50666 c 0,-0.28111 -0.12815,-0.47955 -0.45888,-0.47955 h -0.339 v 3.47265 z m 1.26228,-2.84427 v 2.21589 c 0,0.73449 -0.30317,1.28433 -1.16444,1.28433 h -1.24162 v -4.78455 h 1.24162 c 0.86127,0 1.16444,0.54295 1.16444,1.28433"
       id="path16577" />
  </g>
</svg>
