<?xml version="1.0" encoding="UTF-8" standalone="no"?>
<svg
   id="svg8"
   version="1.1"
   viewBox="0 0 114.31853 17.558229"
   height="17.558229mm"
   width="114.31853mm"
   sodipodi:docname="Trends.Earth.svg"
   inkscape:version="1.2.2 (b0a84865, 2022-12-01)"
   xmlns:inkscape="http://www.inkscape.org/namespaces/inkscape"
   xmlns:sodipodi="http://sodipodi.sourceforge.net/DTD/sodipodi-0.dtd"
   xmlns="http://www.w3.org/2000/svg"
   xmlns:svg="http://www.w3.org/2000/svg"
   xmlns:rdf="http://www.w3.org/1999/02/22-rdf-syntax-ns#"
   xmlns:cc="http://creativecommons.org/ns#"
   xmlns:dc="http://purl.org/dc/elements/1.1/">
  <sodipodi:namedview
     id="namedview686"
     pagecolor="#ffffff"
     bordercolor="#666666"
     borderopacity="1.0"
     inkscape:showpageshadow="2"
     inkscape:pageopacity="0.0"
     inkscape:pagecheckerboard="0"
     inkscape:deskcolor="#d1d1d1"
     inkscape:document-units="mm"
     showgrid="false"
     inkscape:zoom="1.7354414"
     inkscape:cx="222.13369"
     inkscape:cy="44.657228"
     inkscape:window-width="1680"
     inkscape:window-height="841"
     inkscape:window-x="0"
     inkscape:window-y="209"
     inkscape:window-maximized="0"
     inkscape:current-layer="g4496" />
  <defs
     id="defs2" />
  <metadata
     id="metadata5">
    <rdf:RDF>
      <cc:Work
         rdf:about="">
        <dc:format>image/svg+xml</dc:format>
        <dc:type
           rdf:resource="http://purl.org/dc/dcmitype/StillImage" />
        <dc:title />
      </cc:Work>
    </rdf:RDF>
  </metadata>
  <g
     transform="translate(-77.146701,-74.255235)"
     id="layer1">
    <g
       aria-label="tracking land change"
       id="text4486"
       style="font-size:141.111px;font-family:Arial;-inkscape-font-specification:Arial;letter-spacing:0px;word-spacing:0px;fill:#646464;stroke-width:0.264583px"
       transform="translate(3.2961058)">
      <path
         d="m 101.06096,90.620083 q -0.14607,0.03859 -0.31971,0.06339 -0.17087,0.02481 -0.30592,0.02481 -0.47129,0 -0.71658,-0.253559 -0.245291,-0.253559 -0.245291,-0.813043 v -1.637109 h -0.350022 v -0.43546 h 0.350022 v -0.884701 h 0.518142 v 0.884701 h 1.069359 v 0.43546 h -1.069359 v 1.402843 q 0,0.242534 0.01103,0.380338 0.011,0.135048 0.0772,0.253559 0.0606,0.110243 0.16536,0.162609 0.10749,0.04961 0.32522,0.04961 0.12678,0 0.26458,-0.03583 0.1378,-0.03858 0.19844,-0.06339 h 0.0276 z"
         style="-inkscape-font-specification:'Proxima Nova'"
         id="path859" />
      <path
         d="m 103.87216,88.134102 h -0.0276 q -0.11576,-0.02756 -0.226,-0.03858 -0.10749,-0.01378 -0.25632,-0.01378 -0.23978,0 -0.46302,0.107487 -0.22324,0.104731 -0.42995,0.272851 v 2.185569 h -0.51814 v -3.078537 h 0.51814 v 0.454752 q 0.30868,-0.248047 0.54295,-0.350021 0.23702,-0.104731 0.48231,-0.104731 0.13505,0 0.19569,0.0083 0.0606,0.0055 0.1819,0.02481 z"
         style="-inkscape-font-specification:'Proxima Nova'"
         id="path861" />
      <path
         d="m 106.91762,90.647644 h -0.51538 v -0.327973 q -0.0689,0.04685 -0.18742,0.132292 -0.11575,0.08268 -0.226,0.132291 -0.12953,0.06339 -0.29765,0.104731 -0.16812,0.0441 -0.39412,0.0441 -0.41617,0 -0.70556,-0.275607 -0.28939,-0.275608 -0.28939,-0.7028 0,-0.350021 0.14883,-0.564995 0.15159,-0.21773 0.42995,-0.341754 0.28112,-0.124023 0.67524,-0.168121 0.39412,-0.0441 0.84612,-0.06615 v -0.07993 q 0,-0.176388 -0.0634,-0.292144 -0.0606,-0.115755 -0.17639,-0.181901 -0.11025,-0.06339 -0.26459,-0.08544 -0.15434,-0.02205 -0.32246,-0.02205 -0.20395,0 -0.45475,0.05512 -0.2508,0.05236 -0.51814,0.15434 h -0.0276 v -0.52641 q 0.15158,-0.04134 0.43821,-0.09095 0.28663,-0.04961 0.565,-0.04961 0.32522,0 0.56499,0.05512 0.24254,0.05237 0.41893,0.181901 0.17363,0.12678 0.26458,0.327973 0.091,0.201194 0.091,0.49885 z m -0.51538,-0.757921 v -0.85714 q -0.23703,0.01378 -0.55949,0.04134 -0.3197,0.02756 -0.50712,0.07993 -0.22324,0.06339 -0.36104,0.198437 -0.13781,0.132292 -0.13781,0.366558 0,0.264584 0.15986,0.399631 0.15985,0.132292 0.48782,0.132292 0.27285,0 0.49885,-0.104731 0.226,-0.107487 0.41893,-0.256315 z"
         style="-inkscape-font-specification:'Proxima Nova'"
         id="path863" />
      <path
         d="m 110.45642,90.454719 q -0.25907,0.124023 -0.49333,0.192925 -0.23151,0.0689 -0.49334,0.0689 -0.33349,0 -0.61185,-0.09646 -0.27836,-0.09922 -0.4768,-0.297656 -0.2012,-0.198437 -0.31144,-0.501606 -0.11024,-0.303168 -0.11024,-0.708312 0,-0.755164 0.41341,-1.185112 0.41617,-0.429948 1.09692,-0.429948 0.26458,0 0.51814,0.07441 0.25632,0.07441 0.46853,0.181901 v 0.57602 h -0.0276 q -0.23702,-0.184657 -0.49058,-0.283876 -0.2508,-0.09922 -0.49058,-0.09922 -0.44097,0 -0.69729,0.297656 -0.25356,0.294901 -0.25356,0.868164 0,0.556728 0.24805,0.85714 0.2508,0.297656 0.7028,0.297656 0.1571,0 0.3197,-0.04134 0.16261,-0.04134 0.29215,-0.107487 0.113,-0.05788 0.21222,-0.121267 0.0992,-0.06615 0.15709,-0.112999 h 0.0276 z"
         style="-inkscape-font-specification:'Proxima Nova'"
         id="path865" />
      <path
         d="m 114.17988,90.647644 h -0.6835 l -1.23473,-1.347721 -0.33624,0.319705 v 1.028016 h -0.51814 v -4.288455 h 0.51814 v 2.750564 l 1.49655,-1.540646 h 0.65319 l -1.4304,1.422135 z"
         style="-inkscape-font-specification:'Proxima Nova'"
         id="path867" />
      <path
         d="m 115.5469,87.05372 h -0.58429 v -0.537434 h 0.58429 z m -0.0331,3.593924 h -0.51814 v -3.078537 h 0.51814 z"
         style="-inkscape-font-specification:'Proxima Nova'"
         id="path869" />
      <path
         d="m 119.37784,90.647644 h -0.51814 v -1.752865 q 0,-0.212217 -0.0248,-0.396875 -0.0248,-0.187413 -0.091,-0.292144 -0.0689,-0.115755 -0.19843,-0.170876 -0.12954,-0.05788 -0.33624,-0.05788 -0.21222,0 -0.44373,0.104731 -0.23151,0.104731 -0.44373,0.267339 v 2.298568 h -0.51814 v -3.078537 h 0.51814 v 0.341753 q 0.24253,-0.201193 0.50161,-0.314193 0.25907,-0.112999 0.53192,-0.112999 0.49885,0 0.76067,0.300413 0.26183,0.300412 0.26183,0.865408 z"
         style="-inkscape-font-specification:'Proxima Nova'"
         id="path871" />
      <path
         d="m 123.13713,90.297622 q 0,0.782726 -0.35553,1.149284 -0.35554,0.366558 -1.09417,0.366558 -0.24529,0 -0.47955,-0.03583 -0.23151,-0.03307 -0.45751,-0.09646 v -0.529167 h 0.0276 q 0.12678,0.04961 0.40239,0.121267 0.2756,0.07441 0.55121,0.07441 0.26458,0 0.43822,-0.06339 0.17363,-0.06339 0.27009,-0.176389 0.0965,-0.107487 0.13781,-0.259071 0.0413,-0.151585 0.0413,-0.338998 v -0.28112 q -0.23427,0.187414 -0.44924,0.28112 -0.21222,0.09095 -0.54295,0.09095 -0.55121,0 -0.87643,-0.396875 -0.32246,-0.399631 -0.32246,-1.124479 0,-0.396875 0.11024,-0.683507 0.113,-0.289388 0.30592,-0.49885 0.17915,-0.195682 0.43546,-0.303169 0.25632,-0.110243 0.50988,-0.110243 0.26734,0 0.44648,0.05512 0.1819,0.05236 0.3831,0.162608 l 0.0331,-0.132291 h 0.48507 z m -0.51814,-0.496093 v -1.678451 q -0.20671,-0.09371 -0.38585,-0.132292 -0.17639,-0.04134 -0.35278,-0.04134 -0.42719,0 -0.67248,0.286632 -0.24529,0.286632 -0.24529,0.832335 0,0.518143 0.1819,0.785482 0.1819,0.267339 0.60358,0.267339 0.226,0 0.45199,-0.08544 0.22876,-0.08819 0.41893,-0.234266 z"
         style="-inkscape-font-specification:'Proxima Nova'"
         id="path873" />
      <path
         d="m 127.19408,90.647644 h -0.51815 v -4.288455 h 0.51815 z"
         style="-inkscape-font-specification:'Proxima Nova'"
         id="path875" />
      <path
         d="m 130.87619,90.647644 h -0.51538 v -0.327973 q -0.0689,0.04685 -0.18742,0.132292 -0.11575,0.08268 -0.22599,0.132291 -0.12954,0.06339 -0.29766,0.104731 -0.16812,0.0441 -0.39412,0.0441 -0.41617,0 -0.70556,-0.275607 -0.28938,-0.275608 -0.28938,-0.7028 0,-0.350021 0.14882,-0.564995 0.15159,-0.21773 0.42995,-0.341754 0.28112,-0.124023 0.67524,-0.168121 0.39412,-0.0441 0.84612,-0.06615 v -0.07993 q 0,-0.176388 -0.0634,-0.292144 -0.0606,-0.115755 -0.17639,-0.181901 -0.11024,-0.06339 -0.26459,-0.08544 -0.15434,-0.02205 -0.32246,-0.02205 -0.20395,0 -0.45475,0.05512 -0.2508,0.05236 -0.51814,0.15434 h -0.0276 v -0.52641 q 0.15158,-0.04134 0.43821,-0.09095 0.28664,-0.04961 0.565,-0.04961 0.32522,0 0.565,0.05512 0.24253,0.05237 0.41892,0.181901 0.17363,0.12678 0.26458,0.327973 0.091,0.201194 0.091,0.49885 z m -0.51538,-0.757921 v -0.85714 q -0.23703,0.01378 -0.55949,0.04134 -0.3197,0.02756 -0.50711,0.07993 -0.22325,0.06339 -0.36105,0.198437 -0.1378,0.132292 -0.1378,0.366558 0,0.264584 0.15985,0.399631 0.15985,0.132292 0.48782,0.132292 0.27286,0 0.49885,-0.104731 0.226,-0.107487 0.41893,-0.256315 z"
         style="-inkscape-font-specification:'Proxima Nova'"
         id="path877" />
      <path
         d="m 134.71265,90.647644 h -0.51814 v -1.752865 q 0,-0.212217 -0.0248,-0.396875 -0.0248,-0.187413 -0.0909,-0.292144 -0.0689,-0.115755 -0.19843,-0.170876 -0.12954,-0.05788 -0.33625,-0.05788 -0.21221,0 -0.44372,0.104731 -0.23151,0.104731 -0.44373,0.267339 v 2.298568 h -0.51814 v -3.078537 h 0.51814 v 0.341753 q 0.24253,-0.201193 0.5016,-0.314193 0.25907,-0.112999 0.53193,-0.112999 0.49885,0 0.76067,0.300413 0.26183,0.300412 0.26183,0.865408 z"
         style="-inkscape-font-specification:'Proxima Nova'"
         id="path879" />
      <path
         d="m 138.47194,90.647644 h -0.51814 v -0.322461 q -0.22324,0.192925 -0.46578,0.300412 -0.24253,0.107487 -0.52641,0.107487 -0.55121,0 -0.87643,-0.424435 -0.32246,-0.424436 -0.32246,-1.176845 0,-0.391363 0.11024,-0.697287 0.113,-0.305925 0.30317,-0.520899 0.18741,-0.209462 0.43546,-0.319705 0.2508,-0.110243 0.51814,-0.110243 0.24254,0 0.42995,0.05237 0.18741,0.04961 0.39412,0.157096 v -1.333941 h 0.51814 z m -0.51814,-0.757921 v -1.766645 q -0.20946,-0.09371 -0.37483,-0.129536 -0.16536,-0.03583 -0.36104,-0.03583 -0.43546,0 -0.678,0.303169 -0.24253,0.303168 -0.24253,0.859896 0,0.548459 0.18741,0.835091 0.18741,0.283876 0.60082,0.283876 0.22049,0 0.44649,-0.09646 0.226,-0.09922 0.42168,-0.253559 z"
         style="-inkscape-font-specification:'Proxima Nova'"
         id="path881" />
      <path
         d="m 144.28175,90.454719 q -0.25907,0.124023 -0.49334,0.192925 -0.23151,0.0689 -0.49333,0.0689 -0.33349,0 -0.61185,-0.09646 -0.27837,-0.09922 -0.4768,-0.297656 -0.2012,-0.198437 -0.31144,-0.501606 -0.11024,-0.303168 -0.11024,-0.708312 0,-0.755164 0.41341,-1.185112 0.41616,-0.429948 1.09692,-0.429948 0.26458,0 0.51814,0.07441 0.25631,0.07441 0.46853,0.181901 v 0.57602 h -0.0276 q -0.23702,-0.184657 -0.49058,-0.283876 -0.2508,-0.09922 -0.49058,-0.09922 -0.44098,0 -0.69729,0.297656 -0.25356,0.294901 -0.25356,0.868164 0,0.556728 0.24805,0.85714 0.2508,0.297656 0.7028,0.297656 0.15709,0 0.3197,-0.04134 0.16261,-0.04134 0.29215,-0.107487 0.11299,-0.05788 0.21221,-0.121267 0.0992,-0.06615 0.1571,-0.112999 h 0.0276 z"
         style="-inkscape-font-specification:'Proxima Nova'"
         id="path883" />
      <path
         d="m 147.78472,90.647644 h -0.51814 v -1.752865 q 0,-0.212217 -0.0248,-0.396875 -0.0248,-0.187413 -0.0909,-0.292144 -0.0689,-0.115755 -0.19843,-0.170876 -0.12954,-0.05788 -0.33624,-0.05788 -0.21222,0 -0.44373,0.104731 -0.23151,0.104731 -0.44373,0.267339 v 2.298568 h -0.51814 v -4.288455 h 0.51814 v 1.551671 q 0.24253,-0.201193 0.5016,-0.314193 0.25908,-0.112999 0.53193,-0.112999 0.49885,0 0.76067,0.300413 0.26183,0.300412 0.26183,0.865408 z"
         style="-inkscape-font-specification:'Proxima Nova'"
         id="path885" />
      <path
         d="m 151.43928,90.647644 h -0.51539 v -0.327973 q -0.0689,0.04685 -0.18741,0.132292 -0.11575,0.08268 -0.226,0.132291 -0.12953,0.06339 -0.29765,0.104731 -0.16812,0.0441 -0.39412,0.0441 -0.41617,0 -0.70556,-0.275607 -0.28939,-0.275608 -0.28939,-0.7028 0,-0.350021 0.14883,-0.564995 0.15159,-0.21773 0.42995,-0.341754 0.28112,-0.124023 0.67524,-0.168121 0.39412,-0.0441 0.84611,-0.06615 v -0.07993 q 0,-0.176388 -0.0634,-0.292144 -0.0606,-0.115755 -0.17638,-0.181901 -0.11025,-0.06339 -0.26459,-0.08544 -0.15434,-0.02205 -0.32246,-0.02205 -0.20395,0 -0.45475,0.05512 -0.2508,0.05236 -0.51814,0.15434 h -0.0276 v -0.52641 q 0.15158,-0.04134 0.43821,-0.09095 0.28663,-0.04961 0.565,-0.04961 0.32521,0 0.56499,0.05512 0.24254,0.05237 0.41893,0.181901 0.17363,0.12678 0.26458,0.327973 0.0909,0.201194 0.0909,0.49885 z m -0.51539,-0.757921 v -0.85714 q -0.23702,0.01378 -0.55948,0.04134 -0.3197,0.02756 -0.50712,0.07993 -0.22324,0.06339 -0.36104,0.198437 -0.13781,0.132292 -0.13781,0.366558 0,0.264584 0.15986,0.399631 0.15985,0.132292 0.48782,0.132292 0.27285,0 0.49885,-0.104731 0.226,-0.107487 0.41892,-0.256315 z"
         style="-inkscape-font-specification:'Proxima Nova'"
         id="path887" />
      <path
         d="m 155.27574,90.647644 h -0.51814 v -1.752865 q 0,-0.212217 -0.0248,-0.396875 -0.0248,-0.187413 -0.0909,-0.292144 -0.0689,-0.115755 -0.19844,-0.170876 -0.12953,-0.05788 -0.33624,-0.05788 -0.21222,0 -0.44373,0.104731 -0.23151,0.104731 -0.44372,0.267339 v 2.298568 h -0.51815 v -3.078537 h 0.51815 v 0.341753 q 0.24253,-0.201193 0.5016,-0.314193 0.25907,-0.112999 0.53192,-0.112999 0.49885,0 0.76068,0.300413 0.26183,0.300412 0.26183,0.865408 z"
         style="-inkscape-font-specification:'Proxima Nova'"
         id="path889" />
      <path
         d="m 159.03502,90.297622 q 0,0.782726 -0.35553,1.149284 -0.35553,0.366558 -1.09416,0.366558 -0.24529,0 -0.47956,-0.03583 -0.23151,-0.03307 -0.45751,-0.09646 v -0.529167 h 0.0276 q 0.12678,0.04961 0.40239,0.121267 0.27561,0.07441 0.55122,0.07441 0.26458,0 0.43821,-0.06339 0.17363,-0.06339 0.2701,-0.176389 0.0965,-0.107487 0.1378,-0.259071 0.0413,-0.151585 0.0413,-0.338998 v -0.28112 q -0.23426,0.187414 -0.44924,0.28112 -0.21222,0.09095 -0.54295,0.09095 -0.55121,0 -0.87643,-0.396875 -0.32246,-0.399631 -0.32246,-1.124479 0,-0.396875 0.11024,-0.683507 0.113,-0.289388 0.30593,-0.49885 0.17914,-0.195682 0.43546,-0.303169 0.25631,-0.110243 0.50987,-0.110243 0.26734,0 0.44649,0.05512 0.1819,0.05236 0.38309,0.162608 l 0.0331,-0.132291 h 0.48507 z m -0.51814,-0.496093 v -1.678451 q -0.2067,-0.09371 -0.38585,-0.132292 -0.17639,-0.04134 -0.35278,-0.04134 -0.42719,0 -0.67248,0.286632 -0.24529,0.286632 -0.24529,0.832335 0,0.518143 0.1819,0.785482 0.1819,0.267339 0.60358,0.267339 0.226,0 0.452,-0.08544 0.22875,-0.08819 0.41892,-0.234266 z"
         style="-inkscape-font-specification:'Proxima Nova'"
         id="path891" />
      <path
         d="m 162.89629,89.162119 h -2.26825 q 0,0.283876 0.0854,0.496094 0.0854,0.209461 0.23426,0.344509 0.14332,0.132292 0.339,0.198438 0.19844,0.06614 0.43546,0.06614 0.31419,0 0.63114,-0.124023 0.31971,-0.126779 0.45475,-0.248047 h 0.0276 v 0.564996 q -0.26182,0.110243 -0.53467,0.184657 -0.27286,0.07441 -0.57327,0.07441 -0.76619,0 -1.19614,-0.413411 -0.42994,-0.416168 -0.42994,-1.179601 0,-0.755165 0.41065,-1.198893 0.41341,-0.443729 1.0859,-0.443729 0.62287,0 0.95911,0.363802 0.339,0.363803 0.339,1.033529 z m -0.50436,-0.396875 q -0.003,-0.407899 -0.20671,-0.631142 -0.20119,-0.223242 -0.6146,-0.223242 -0.41617,0 -0.66422,0.245291 -0.24529,0.245291 -0.27836,0.609093 z"
         style="-inkscape-font-specification:'Proxima Nova'"
         id="path893" />
    </g>
    <g
       transform="translate(8.2950073,-1.0672117)"
       id="g4496">
      <path
         id="path4490-7"
         d="m 131.15909,81.216837 -0.4562,0.79044 -0.45654,0.79044 h 0.91274 0.91273 l -0.45621,-0.79044 z m 0,0.999815 0.37392,0.23947 0.37394,0.239468 h -0.74786 -0.74755 l 0.37362,-0.239468 z"
         style="fill:#fd0134;fill-opacity:1;stroke:none;stroke-width:0.959282;stroke-linecap:round;stroke-linejoin:miter;stroke-miterlimit:4;stroke-dasharray:none;stroke-opacity:1" />
      <circle
         style="fill:#646464;fill-opacity:1;stroke:none;stroke-width:2.23506;stroke-linecap:round;stroke-linejoin:miter;stroke-miterlimit:4;stroke-dasharray:none;stroke-opacity:1"
         id="path4488"
         cx="131.15913"
         cy="84.199989"
         r="0.67584002" />
      <g
         aria-label="EARTH"
         id="text4528"
         style="font-size:145.977px;font-family:Arial;-inkscape-font-specification:Arial;letter-spacing:0px;word-spacing:0px;fill:#646464;stroke-width:0.273707px">
        <path
           d="m 141.46628,84.875824 h -6.90896 v -9.551943 h 6.90896 v 1.847522 h -4.45843 v 1.648656 h 4.13768 v 1.847521 h -4.13768 v 2.360722 h 4.45843 z"
           style="-inkscape-font-specification:'Proxima Nova Condensed, Semi-Bold'"
           id="path932" />
        <path
           d="m 152.76952,84.875824 h -2.54676 l -0.66074,-1.930917 h -3.54108 l -0.66075,1.930917 h -2.48261 l 3.52826,-9.551943 h 2.83543 z m -3.8041,-3.682213 -1.17394,-3.425613 -1.17395,3.425613 z"
           style="-inkscape-font-specification:'Proxima Nova Condensed, Semi-Bold'"
           id="path934" />
        <path
           d="m 159.90942,78.249123 q 0,-0.35924 -0.14754,-0.61584 -0.14755,-0.2566 -0.50679,-0.404145 -0.25018,-0.10264 -0.58376,-0.121885 -0.33358,-0.02566 -0.77622,-0.02566 h -0.89169 v 2.572417 h 0.75698 q 0.59018,0 0.98791,-0.05773 0.39773,-0.05774 0.66716,-0.263016 0.2566,-0.198865 0.37207,-0.43622 0.12188,-0.24377 0.12188,-0.647916 z m 3.84259,6.626701 h -3.00864 l -2.60449,-3.502593 h -1.13546 v 3.502593 h -2.45053 v -9.551943 h 4.13127 q 0.84678,0 1.4562,0.09623 0.60943,0.09622 1.14187,0.416975 0.53886,0.320751 0.8532,0.833951 0.32075,0.506786 0.32075,1.276586 0,1.058476 -0.49396,1.725637 -0.48754,0.66716 -1.39847,1.109796 z"
           style="-inkscape-font-specification:'Proxima Nova Condensed, Semi-Bold'"
           id="path936" />
        <path
           d="m 172.71377,77.171403 h -2.98297 v 7.704421 h -2.46337 v -7.704421 h -2.98297 v -1.847522 h 8.42931 z"
           style="-inkscape-font-specification:'Proxima Nova Condensed, Semi-Bold'"
           id="path938" />
        <path
           d="m 183.17023,84.875824 h -2.46336 V 80.66758 h -3.63731 v 4.208244 h -2.46336 v -9.551943 h 2.46336 v 3.496178 h 3.63731 v -3.496178 h 2.46336 z"
           style="-inkscape-font-specification:'Proxima Nova Condensed, Semi-Bold'"
           id="path940" />
      </g>
      <g
         aria-label="TRENDS "
         id="text4487"
         style="font-size:141.111px;font-family:Arial;-inkscape-font-specification:Arial;letter-spacing:0px;word-spacing:0px;stroke-width:0.264583px"
         transform="translate(-18.520833)">
        <path
           d="m 95.520866,77.27582 h -2.883545 v 7.447607 h -2.38125 V 77.27582 h -2.883544 v -1.785938 h 8.148339 z"
           style="-inkscape-font-specification:'Proxima Nova Condensed, Semi-Bold';fill:#ff0134"
           id="path953" />
        <path
           d="m 102.52819,78.317616 q 0,-0.347265 -0.14263,-0.595312 -0.14262,-0.248047 -0.48989,-0.390674 -0.24184,-0.09922 -0.56431,-0.117822 -0.32246,-0.02481 -0.75034,-0.02481 h -0.86196 v 2.48667 h 0.73174 q 0.57051,0 0.95498,-0.05581 0.38447,-0.05581 0.64492,-0.254248 0.24805,-0.192236 0.35967,-0.421679 0.11782,-0.235645 0.11782,-0.626319 z m 3.7145,6.405811 h -2.90835 l -2.51767,-3.38584 h -1.09761 v 3.38584 h -2.368848 v -9.233545 h 3.993558 q 0.81855,0 1.40766,0.09302 0.58911,0.09302 1.10381,0.403076 0.5209,0.310058 0.82476,0.806152 0.31006,0.489893 0.31006,1.234033 0,1.023194 -0.47749,1.668116 -0.47129,0.644921 -1.35186,1.072802 z"
           style="-inkscape-font-specification:'Proxima Nova Condensed, Semi-Bold';fill:#ff0134"
           id="path955" />
        <path
           d="m 114.36003,84.723427 h -6.67867 v -9.233545 h 6.67867 v 1.785938 h -4.30982 v 1.593701 h 3.99976 v 1.785937 h -3.99976 v 2.282031 h 4.30982 z"
           style="-inkscape-font-specification:'Proxima Nova Condensed, Semi-Bold';fill:#ff0134"
           id="path957" />
        <path
           d="m 125.15006,84.723427 h -2.29443 l -3.91914,-6.337598 v 6.337598 h -2.18281 v -9.233545 h 2.84634 l 3.36723,5.2896 v -5.2896 h 2.18281 z"
           style="-inkscape-font-specification:'Proxima Nova Condensed, Semi-Bold';fill:#ff0134"
           id="path959" />
        <path
           d="m 136.62843,80.115956 q 0,1.289844 -0.58911,2.313037 -0.58911,1.016992 -1.48828,1.562696 -0.67593,0.409277 -1.48208,0.570507 -0.80615,0.161231 -1.90996,0.161231 h -3.25561 v -9.233545 h 3.34863 q 1.12861,0 1.94717,0.192236 0.81855,0.186036 1.37666,0.533301 0.95498,0.58291 1.50068,1.575098 0.5519,0.985986 0.5519,2.325439 z m -2.46186,-0.0186 q 0,-0.911573 -0.33486,-1.556494 -0.32867,-0.651123 -1.048,-1.016993 -0.36587,-0.179834 -0.75034,-0.241845 -0.37828,-0.06821 -1.14722,-0.06821 h -0.60151 V 82.9933 h 0.60151 q 0.84956,0 1.24643,-0.07441 0.39688,-0.08061 0.77515,-0.285254 0.65112,-0.37207 0.95498,-0.992188 0.30386,-0.626318 0.30386,-1.544091 z"
           style="-inkscape-font-specification:'Proxima Nova Condensed, Semi-Bold';fill:#ff0134"
           id="path961" />
        <path
           d="m 146.23405,81.821278 q 0,1.364258 -1.15962,2.22002 -1.15342,0.84956 -3.13779,0.84956 -1.14722,0 -2.00298,-0.198437 -0.84956,-0.204639 -1.5937,-0.514697 v -2.213819 h 0.26045 q 0.73793,0.589112 1.64951,0.905371 0.91777,0.31626 1.76113,0.31626 0.21704,0 0.57051,-0.03721 0.35346,-0.03721 0.57671,-0.124023 0.27285,-0.111621 0.44648,-0.279053 0.17983,-0.167432 0.17983,-0.496094 0,-0.303857 -0.26044,-0.520898 -0.25425,-0.223242 -0.75035,-0.341065 -0.52089,-0.124023 -1.1038,-0.229443 -0.57671,-0.111621 -1.08521,-0.279053 -1.16582,-0.378271 -1.68052,-1.023193 -0.50849,-0.651123 -0.50849,-1.612305 0,-1.289843 1.15341,-2.102197 1.15962,-0.818555 2.97657,-0.818555 0.91157,0 1.79834,0.179834 0.89297,0.173633 1.54409,0.440284 v 2.127001 h -0.25425 q -0.55811,-0.446484 -1.37046,-0.74414 -0.80615,-0.303858 -1.64951,-0.303858 -0.29766,0 -0.59531,0.04341 -0.29146,0.03721 -0.56431,0.148828 -0.24185,0.09302 -0.41548,0.285254 -0.17363,0.186035 -0.17363,0.427881 0,0.365869 0.27905,0.564306 0.27905,0.192237 1.0542,0.353467 0.5085,0.10542 0.97359,0.204639 0.47128,0.09922 1.01079,0.272851 1.0604,0.347266 1.56269,0.948779 0.5085,0.595313 0.5085,1.550293 z"
           style="-inkscape-font-specification:'Proxima Nova Condensed, Semi-Bold';fill:#ff0134"
           id="path963" />
      </g>
    </g>
  </g>
</svg>
